<?xml version="1.0" encoding="UTF-8" standalone="no"?>
<!DOCTYPE svg PUBLIC "-//W3C//DTD SVG 1.1//EN"
 "http://www.w3.org/Graphics/SVG/1.1/DTD/svg11.dtd">
<!-- Generated by graphviz version 2.43.0 (0)
 -->
<!-- Title: reductions Pages: 1 -->
<svg width="906pt" height="320pt"
 viewBox="0.00 0.00 906.00 320.00" xmlns="http://www.w3.org/2000/svg" xmlns:xlink="http://www.w3.org/1999/xlink">
<g id="graph0" class="graph" transform="scale(1 1) rotate(0) translate(4 316)">
<title>reductions</title>
<polygon fill="white" stroke="transparent" points="-4,4 -4,-316 902,-316 902,4 -4,4"/>
<!-- sat -->
<g id="node1" class="node">
<title>sat</title>
<path fill="none" stroke="black" d="M283.67,-312C283.67,-312 244.33,-312 244.33,-312 240.67,-312 237,-308.33 237,-304.67 237,-304.67 237,-297.33 237,-297.33 237,-293.67 240.67,-290 244.33,-290 244.33,-290 283.67,-290 283.67,-290 287.33,-290 291,-293.67 291,-297.33 291,-297.33 291,-304.67 291,-304.67 291,-308.33 287.33,-312 283.67,-312"/>
<text text-anchor="middle" x="264" y="-298.2" font-family="Gentium Basic" font-size="11.00">k&#45;SAT</text>
</g>
<!-- ssat -->
<g id="node2" class="node">
<title>ssat</title>
<path fill="none" stroke="black" d="M275.17,-254C275.17,-254 212.83,-254 212.83,-254 209.17,-254 205.5,-250.33 205.5,-246.67 205.5,-246.67 205.5,-239.33 205.5,-239.33 205.5,-235.67 209.17,-232 212.83,-232 212.83,-232 275.17,-232 275.17,-232 278.83,-232 282.5,-235.67 282.5,-239.33 282.5,-239.33 282.5,-246.67 282.5,-246.67 282.5,-250.33 278.83,-254 275.17,-254"/>
<text text-anchor="middle" x="244" y="-240.2" font-family="Gentium Basic" font-size="11.00">Sparse k&#45;SAT</text>
</g>
<!-- sat&#45;&gt;ssat -->
<g id="edge1" class="edge">
<title>sat&#45;&gt;ssat</title>
<g id="a_edge1"><a xlink:href="kSAT-skSAT" target="_top">
<path fill="none" stroke="grey" stroke-width="3" d="M260.42,-289.99C257.36,-281.42 252.91,-268.94 249.41,-259.15"/>
<polygon fill="grey" stroke="grey" stroke-width="3" points="251.01,-258.42 247.68,-254.3 247.71,-259.6 251.01,-258.42"/>
</a>
</g>
</g>
<!-- ov -->
<g id="node3" class="node">
<title>ov</title>
<path fill="none" stroke="black" d="M420.17,-254C420.17,-254 333.83,-254 333.83,-254 330.17,-254 326.5,-250.33 326.5,-246.67 326.5,-246.67 326.5,-239.33 326.5,-239.33 326.5,-235.67 330.17,-232 333.83,-232 333.83,-232 420.17,-232 420.17,-232 423.83,-232 427.5,-235.67 427.5,-239.33 427.5,-239.33 427.5,-246.67 427.5,-246.67 427.5,-250.33 423.83,-254 420.17,-254"/>
<text text-anchor="middle" x="377" y="-240.2" font-family="Gentium Basic" font-size="11.00">Orthogonal Vector</text>
</g>
<!-- sat&#45;&gt;ov -->
<g id="edge2" class="edge">
<title>sat&#45;&gt;ov</title>
<g id="a_edge2"><a xlink:href="kSAT-OV" target="_top">
<path fill="none" stroke="grey" stroke-width="3" d="M284.2,-289.99C303.21,-280.57 331.71,-266.44 352.11,-256.33"/>
<polygon fill="grey" stroke="grey" stroke-width="3" points="352.89,-257.9 356.59,-254.11 351.33,-254.77 352.89,-257.9"/>
</a>
</g>
</g>
<!-- clique -->
<g id="node6" class="node">
<title>clique</title>
<path fill="none" stroke="black" d="M194.67,-196C194.67,-196 153.33,-196 153.33,-196 149.67,-196 146,-192.33 146,-188.67 146,-188.67 146,-181.33 146,-181.33 146,-177.67 149.67,-174 153.33,-174 153.33,-174 194.67,-174 194.67,-174 198.33,-174 202,-177.67 202,-181.33 202,-181.33 202,-188.67 202,-188.67 202,-192.33 198.33,-196 194.67,-196"/>
<text text-anchor="middle" x="174" y="-182.2" font-family="Gentium Basic" font-size="11.00">q&#45;Clique</text>
</g>
<!-- ssat&#45;&gt;clique -->
<g id="edge3" class="edge">
<title>ssat&#45;&gt;clique</title>
<g id="a_edge3"><a xlink:href="skSAT-qclique" target="_top">
<path fill="none" stroke="grey" stroke-width="3" d="M231.49,-231.99C220.18,-222.94 203.44,-209.56 190.94,-199.55"/>
<polygon fill="grey" stroke="grey" stroke-width="3" points="191.88,-198.06 186.88,-196.3 189.69,-200.79 191.88,-198.06"/>
</a>
</g>
</g>
<!-- subset_sum -->
<g id="node7" class="node">
<title>subset_sum</title>
<path fill="none" stroke="black" d="M271.17,-196C271.17,-196 216.83,-196 216.83,-196 213.17,-196 209.5,-192.33 209.5,-188.67 209.5,-188.67 209.5,-181.33 209.5,-181.33 209.5,-177.67 213.17,-174 216.83,-174 216.83,-174 271.17,-174 271.17,-174 274.83,-174 278.5,-177.67 278.5,-181.33 278.5,-181.33 278.5,-188.67 278.5,-188.67 278.5,-192.33 274.83,-196 271.17,-196"/>
<text text-anchor="middle" x="244" y="-182.2" font-family="Gentium Basic" font-size="11.00">Subset Sum</text>
</g>
<!-- ssat&#45;&gt;subset_sum -->
<g id="edge4" class="edge">
<title>ssat&#45;&gt;subset_sum</title>
<g id="a_edge4"><a xlink:href="skSAT-subsetsum" target="_top">
<path fill="none" stroke="grey" stroke-width="3" d="M244,-231.99C244,-223.49 244,-211.17 244,-201.42"/>
<polygon fill="grey" stroke="grey" stroke-width="3" points="245.75,-201.3 244,-196.3 242.25,-201.3 245.75,-201.3"/>
</a>
</g>
</g>
<!-- diam -->
<g id="node10" class="node">
<title>diam</title>
<path fill="none" stroke="black" d="M337.17,-196C337.17,-196 292.83,-196 292.83,-196 289.17,-196 285.5,-192.33 285.5,-188.67 285.5,-188.67 285.5,-181.33 285.5,-181.33 285.5,-177.67 289.17,-174 292.83,-174 292.83,-174 337.17,-174 337.17,-174 340.83,-174 344.5,-177.67 344.5,-181.33 344.5,-181.33 344.5,-188.67 344.5,-188.67 344.5,-192.33 340.83,-196 337.17,-196"/>
<text text-anchor="middle" x="315" y="-182.2" font-family="Gentium Basic" font-size="11.00">Diameter</text>
</g>
<!-- ov&#45;&gt;diam -->
<g id="edge7" class="edge">
<title>ov&#45;&gt;diam</title>
<g id="a_edge7"><a xlink:href="OV-diameter" target="_top">
<path fill="none" stroke="grey" stroke-width="3" d="M365.92,-231.99C355.99,-223.02 341.34,-209.79 330.3,-199.82"/>
<polygon fill="grey" stroke="grey" stroke-width="3" points="331.29,-198.36 326.41,-196.3 328.95,-200.95 331.29,-198.36"/>
</a>
</g>
</g>
<!-- regex -->
<g id="node11" class="node">
<title>regex</title>
<path fill="none" stroke="black" d="M433.17,-196C433.17,-196 358.83,-196 358.83,-196 355.17,-196 351.5,-192.33 351.5,-188.67 351.5,-188.67 351.5,-181.33 351.5,-181.33 351.5,-177.67 355.17,-174 358.83,-174 358.83,-174 433.17,-174 433.17,-174 436.83,-174 440.5,-177.67 440.5,-181.33 440.5,-181.33 440.5,-188.67 440.5,-188.67 440.5,-192.33 436.83,-196 433.17,-196"/>
<text text-anchor="middle" x="396" y="-182.2" font-family="Gentium Basic" font-size="11.00">Regex Matching</text>
</g>
<!-- ov&#45;&gt;regex -->
<g id="edge8" class="edge">
<title>ov&#45;&gt;regex</title>
<g id="a_edge8"><a xlink:href="OV-regex" target="_top">
<path fill="none" stroke="grey" stroke-width="3" d="M380.4,-231.99C383.31,-223.42 387.54,-210.94 390.86,-201.15"/>
<polygon fill="grey" stroke="grey" stroke-width="3" points="392.55,-201.6 392.5,-196.3 389.24,-200.48 392.55,-201.6"/>
</a>
</g>
</g>
<!-- lcs -->
<g id="node12" class="node">
<title>lcs</title>
<path fill="none" stroke="black" d="M494.67,-196C494.67,-196 455.33,-196 455.33,-196 451.67,-196 448,-192.33 448,-188.67 448,-188.67 448,-181.33 448,-181.33 448,-177.67 451.67,-174 455.33,-174 455.33,-174 494.67,-174 494.67,-174 498.33,-174 502,-177.67 502,-181.33 502,-181.33 502,-188.67 502,-188.67 502,-192.33 498.33,-196 494.67,-196"/>
<text text-anchor="middle" x="475" y="-182.2" font-family="Gentium Basic" font-size="11.00">LCS</text>
</g>
<!-- ov&#45;&gt;lcs -->
<g id="edge9" class="edge">
<title>ov&#45;&gt;lcs</title>
<g id="a_edge9"><a xlink:href="OV-LCS" target="_top">
<path fill="none" stroke="grey" stroke-width="3" d="M394.52,-231.99C410.72,-222.73 434.89,-208.92 452.52,-198.85"/>
<polygon fill="grey" stroke="grey" stroke-width="3" points="453.83,-200.11 457.3,-196.11 452.09,-197.08 453.83,-200.11"/>
</a>
</g>
</g>
<!-- apsp -->
<g id="node4" class="node">
<title>apsp</title>
<path fill="none" stroke="black" d="M588.67,-312C588.67,-312 487.33,-312 487.33,-312 483.67,-312 480,-308.33 480,-304.67 480,-304.67 480,-297.33 480,-297.33 480,-293.67 483.67,-290 487.33,-290 487.33,-290 588.67,-290 588.67,-290 592.33,-290 596,-293.67 596,-297.33 596,-297.33 596,-304.67 596,-304.67 596,-308.33 592.33,-312 588.67,-312"/>
<text text-anchor="middle" x="538" y="-298.2" font-family="Gentium Basic" font-size="11.00">All&#45;Pair Shortest Path</text>
</g>
<!-- mat_prod_minplus -->
<g id="node15" class="node">
<title>mat_prod_minplus</title>
<path fill="none" stroke="black" d="M636.67,-254C636.67,-254 531.33,-254 531.33,-254 527.67,-254 524,-250.33 524,-246.67 524,-246.67 524,-239.33 524,-239.33 524,-235.67 527.67,-232 531.33,-232 531.33,-232 636.67,-232 636.67,-232 640.33,-232 644,-235.67 644,-239.33 644,-239.33 644,-246.67 644,-246.67 644,-250.33 640.33,-254 636.67,-254"/>
<text text-anchor="middle" x="584" y="-240.2" font-family="Gentium Basic" font-size="11.00">(Min,+) Matrix Product</text>
</g>
<!-- apsp&#45;&gt;mat_prod_minplus -->
<g id="edge10" class="edge">
<title>apsp&#45;&gt;mat_prod_minplus</title>
<g id="a_edge10"><a xlink:href="APSP-minplus" target="_top">
<path fill="none" stroke="grey" stroke-width="3" d="M546.22,-289.99C553.46,-281.18 564.08,-268.25 572.22,-258.34"/>
<polygon fill="grey" stroke="grey" stroke-width="3" points="573.71,-259.28 575.54,-254.3 571.01,-257.06 573.71,-259.28"/>
</a>
</g>
</g>
<!-- sum3 -->
<g id="node5" class="node">
<title>sum3</title>
<path fill="none" stroke="black" d="M835.67,-312C835.67,-312 796.33,-312 796.33,-312 792.67,-312 789,-308.33 789,-304.67 789,-304.67 789,-297.33 789,-297.33 789,-293.67 792.67,-290 796.33,-290 796.33,-290 835.67,-290 835.67,-290 839.33,-290 843,-293.67 843,-297.33 843,-297.33 843,-304.67 843,-304.67 843,-308.33 839.33,-312 835.67,-312"/>
<text text-anchor="middle" x="816" y="-298.2" font-family="Gentium Basic" font-size="11.00">3&#45;Sum</text>
</g>
<!-- sum3_conv -->
<g id="node25" class="node">
<title>sum3_conv</title>
<path fill="none" stroke="black" d="M813.17,-254C813.17,-254 724.83,-254 724.83,-254 721.17,-254 717.5,-250.33 717.5,-246.67 717.5,-246.67 717.5,-239.33 717.5,-239.33 717.5,-235.67 721.17,-232 724.83,-232 724.83,-232 813.17,-232 813.17,-232 816.83,-232 820.5,-235.67 820.5,-239.33 820.5,-239.33 820.5,-246.67 820.5,-246.67 820.5,-250.33 816.83,-254 813.17,-254"/>
<text text-anchor="middle" x="769" y="-240.2" font-family="Gentium Basic" font-size="11.00">Convolution 3&#45;Sum</text>
</g>
<!-- sum3&#45;&gt;sum3_conv -->
<g id="edge21" class="edge">
<title>sum3&#45;&gt;sum3_conv</title>
<g id="a_edge21"><a xlink:href="3sum-conv3sum" target="_top">
<path fill="none" stroke="grey" stroke-width="3" d="M804.23,-285.98C797.14,-277.53 788.12,-266.78 780.98,-258.28"/>
<polygon fill="grey" stroke="grey" stroke-width="3" points="803.04,-287.28 807.6,-289.99 805.72,-285.03 803.04,-287.28"/>
<polygon fill="grey" stroke="grey" stroke-width="3" points="782.2,-257.01 777.65,-254.3 779.52,-259.26 782.2,-257.01"/>
</a>
</g>
</g>
<!-- collinear -->
<g id="node26" class="node">
<title>collinear</title>
<path fill="none" stroke="black" d="M890.67,-254C890.67,-254 835.33,-254 835.33,-254 831.67,-254 828,-250.33 828,-246.67 828,-246.67 828,-239.33 828,-239.33 828,-235.67 831.67,-232 835.33,-232 835.33,-232 890.67,-232 890.67,-232 894.33,-232 898,-235.67 898,-239.33 898,-239.33 898,-246.67 898,-246.67 898,-250.33 894.33,-254 890.67,-254"/>
<text text-anchor="middle" x="863" y="-240.2" font-family="Gentium Basic" font-size="11.00">Collinearity</text>
</g>
<!-- sum3&#45;&gt;collinear -->
<g id="edge22" class="edge">
<title>sum3&#45;&gt;collinear</title>
<g id="a_edge22"><a xlink:href="3sum-collinearity" target="_top">
<path fill="none" stroke="grey" stroke-width="3" d="M824.4,-289.99C831.8,-281.18 842.65,-268.25 850.96,-258.34"/>
<polygon fill="grey" stroke="grey" stroke-width="3" points="852.48,-259.26 854.35,-254.3 849.8,-257.01 852.48,-259.26"/>
</a>
</g>
</g>
<!-- tri -->
<g id="node17" class="node">
<title>tri</title>
<path fill="none" stroke="black" d="M194.17,-138C194.17,-138 153.83,-138 153.83,-138 150.17,-138 146.5,-134.33 146.5,-130.67 146.5,-130.67 146.5,-123.33 146.5,-123.33 146.5,-119.67 150.17,-116 153.83,-116 153.83,-116 194.17,-116 194.17,-116 197.83,-116 201.5,-119.67 201.5,-123.33 201.5,-123.33 201.5,-130.67 201.5,-130.67 201.5,-134.33 197.83,-138 194.17,-138"/>
<text text-anchor="middle" x="174" y="-124.2" font-family="Gentium Basic" font-size="11.00">Triangle</text>
</g>
<!-- clique&#45;&gt;tri -->
<g id="edge5" class="edge">
<title>clique&#45;&gt;tri</title>
<g id="a_edge5"><a xlink:href="qclique-triangle" target="_top">
<path fill="none" stroke="grey" stroke-width="3" d="M174,-173.99C174,-165.49 174,-153.17 174,-143.42"/>
<polygon fill="grey" stroke="grey" stroke-width="3" points="175.75,-143.3 174,-138.3 172.25,-143.3 175.75,-143.3"/>
</a>
</g>
</g>
<!-- knapsack -->
<g id="node8" class="node">
<title>knapsack</title>
<path fill="none" stroke="black" d="M703.17,-254C703.17,-254 658.83,-254 658.83,-254 655.17,-254 651.5,-250.33 651.5,-246.67 651.5,-246.67 651.5,-239.33 651.5,-239.33 651.5,-235.67 655.17,-232 658.83,-232 658.83,-232 703.17,-232 703.17,-232 706.83,-232 710.5,-235.67 710.5,-239.33 710.5,-239.33 710.5,-246.67 710.5,-246.67 710.5,-250.33 706.83,-254 703.17,-254"/>
<text text-anchor="middle" x="681" y="-240.2" font-family="Gentium Basic" font-size="11.00">Knapsack</text>
</g>
<!-- hv -->
<g id="node9" class="node">
<title>hv</title>
<path fill="none" stroke="black" d="M410.67,-312C410.67,-312 343.33,-312 343.33,-312 339.67,-312 336,-308.33 336,-304.67 336,-304.67 336,-297.33 336,-297.33 336,-293.67 339.67,-290 343.33,-290 343.33,-290 410.67,-290 410.67,-290 414.33,-290 418,-293.67 418,-297.33 418,-297.33 418,-304.67 418,-304.67 418,-308.33 414.33,-312 410.67,-312"/>
<text text-anchor="middle" x="377" y="-298.2" font-family="Gentium Basic" font-size="11.00">Hitting Vector</text>
</g>
<!-- hv&#45;&gt;ov -->
<g id="edge6" class="edge">
<title>hv&#45;&gt;ov</title>
<g id="a_edge6"><a xlink:href="HV-OV" target="_top">
<path fill="none" stroke="grey" stroke-width="3" d="M377,-289.99C377,-281.49 377,-269.17 377,-259.42"/>
<polygon fill="grey" stroke="grey" stroke-width="3" points="378.75,-259.3 377,-254.3 375.25,-259.3 378.75,-259.3"/>
</a>
</g>
</g>
<!-- mat_prod -->
<g id="node13" class="node">
<title>mat_prod</title>
<path fill="none" stroke="black" d="M97.67,-22C97.67,-22 26.33,-22 26.33,-22 22.67,-22 19,-18.33 19,-14.67 19,-14.67 19,-7.33 19,-7.33 19,-3.67 22.67,0 26.33,0 26.33,0 97.67,0 97.67,0 101.33,0 105,-3.67 105,-7.33 105,-7.33 105,-14.67 105,-14.67 105,-18.33 101.33,-22 97.67,-22"/>
<text text-anchor="middle" x="62" y="-8.2" font-family="Gentium Basic" font-size="11.00">Matrix Product</text>
</g>
<!-- mat_prod_bool -->
<g id="node14" class="node">
<title>mat_prod_bool</title>
<path fill="none" stroke="black" d="M116.67,-80C116.67,-80 7.33,-80 7.33,-80 3.67,-80 0,-76.33 0,-72.67 0,-72.67 0,-65.33 0,-65.33 0,-61.67 3.67,-58 7.33,-58 7.33,-58 116.67,-58 116.67,-58 120.33,-58 124,-61.67 124,-65.33 124,-65.33 124,-72.67 124,-72.67 124,-76.33 120.33,-80 116.67,-80"/>
<text text-anchor="middle" x="62" y="-66.2" font-family="Gentium Basic" font-size="11.00">Boolean Matrix Product</text>
</g>
<!-- mat_prod_bool&#45;&gt;mat_prod -->
<g id="edge20" class="edge">
<title>mat_prod_bool&#45;&gt;mat_prod</title>
<g id="a_edge20"><a xlink:href="BMM-MM" target="_top">
<path fill="none" stroke="grey" stroke-width="3" d="M62,-57.99C62,-49.49 62,-37.17 62,-27.42"/>
<polygon fill="grey" stroke="grey" stroke-width="3" points="63.75,-27.3 62,-22.3 60.25,-27.3 63.75,-27.3"/>
</a>
</g>
</g>
<!-- tri_neg -->
<g id="node19" class="node">
<title>tri_neg</title>
<path fill="none" stroke="black" d="M626.67,-196C626.67,-196 543.33,-196 543.33,-196 539.67,-196 536,-192.33 536,-188.67 536,-188.67 536,-181.33 536,-181.33 536,-177.67 539.67,-174 543.33,-174 543.33,-174 626.67,-174 626.67,-174 630.33,-174 634,-177.67 634,-181.33 634,-181.33 634,-188.67 634,-188.67 634,-192.33 630.33,-196 626.67,-196"/>
<text text-anchor="middle" x="585" y="-182.2" font-family="Gentium Basic" font-size="11.00">Negative Triangle</text>
</g>
<!-- mat_prod_minplus&#45;&gt;tri_neg -->
<g id="edge11" class="edge">
<title>mat_prod_minplus&#45;&gt;tri_neg</title>
<g id="a_edge11"><a xlink:href="minplus-negtriangle" target="_top">
<path fill="none" stroke="grey" stroke-width="3" d="M584.18,-231.99C584.33,-223.49 584.55,-211.17 584.72,-201.42"/>
<polygon fill="grey" stroke="grey" stroke-width="3" points="586.48,-201.33 584.82,-196.3 582.98,-201.27 586.48,-201.33"/>
</a>
</g>
</g>
<!-- minplus_conv -->
<g id="node16" class="node">
<title>minplus_conv</title>
<path fill="none" stroke="black" d="M726.67,-312C726.67,-312 635.33,-312 635.33,-312 631.67,-312 628,-308.33 628,-304.67 628,-304.67 628,-297.33 628,-297.33 628,-293.67 631.67,-290 635.33,-290 635.33,-290 726.67,-290 726.67,-290 730.33,-290 734,-293.67 734,-297.33 734,-297.33 734,-304.67 734,-304.67 734,-308.33 730.33,-312 726.67,-312"/>
<text text-anchor="middle" x="681" y="-298.2" font-family="Gentium Basic" font-size="11.00">(Min,+) Convolution</text>
</g>
<!-- minplus_conv&#45;&gt;knapsack -->
<g id="edge26" class="edge">
<title>minplus_conv&#45;&gt;knapsack</title>
<g id="a_edge26"><a xlink:href="minplusconv-knapsack" target="_top">
<path fill="none" stroke="grey" stroke-width="3" d="M681,-284.92C681,-277.04 681,-267.42 681,-259.48"/>
<polygon fill="grey" stroke="grey" stroke-width="3" points="679.25,-284.99 681,-289.99 682.75,-284.99 679.25,-284.99"/>
<polygon fill="grey" stroke="grey" stroke-width="3" points="682.75,-259.3 681,-254.3 679.25,-259.3 682.75,-259.3"/>
</a>
</g>
</g>
<!-- minplus_conv&#45;&gt;mat_prod_minplus -->
<g id="edge25" class="edge">
<title>minplus_conv&#45;&gt;mat_prod_minplus</title>
<g id="a_edge25"><a xlink:href="minplusconv-minplus" target="_top">
<path fill="none" stroke="grey" stroke-width="3" d="M663.66,-289.99C647.62,-280.73 623.7,-266.92 606.25,-256.85"/>
<polygon fill="grey" stroke="grey" stroke-width="3" points="606.72,-255.1 601.52,-254.11 604.97,-258.13 606.72,-255.1"/>
</a>
</g>
</g>
<!-- minplus_conv&#45;&gt;sum3_conv -->
<g id="edge24" class="edge">
<title>minplus_conv&#45;&gt;sum3_conv</title>
<g id="a_edge24"><a xlink:href="minplusconv-conv3sum" target="_top">
<path fill="none" stroke="grey" stroke-width="3" d="M696.73,-289.99C711.28,-280.73 732.99,-266.92 748.81,-256.85"/>
<polygon fill="grey" stroke="grey" stroke-width="3" points="749.83,-258.27 753.11,-254.11 747.95,-255.32 749.83,-258.27"/>
</a>
</g>
</g>
<!-- tri&#45;&gt;mat_prod_bool -->
<g id="edge18" class="edge">
<title>tri&#45;&gt;mat_prod_bool</title>
<g id="a_edge18"><a xlink:href="triangle-BMM" target="_top">
<path fill="none" stroke="grey" stroke-width="3" d="M153.98,-115.99C135.22,-106.61 107.13,-92.56 86.92,-82.46"/>
<polygon fill="grey" stroke="grey" stroke-width="3" points="87.48,-80.78 82.23,-80.11 85.92,-83.92 87.48,-80.78"/>
</a>
</g>
</g>
<!-- tri_neg_v -->
<g id="node18" class="node">
<title>tri_neg_v</title>
<path fill="none" stroke="black" d="M255.17,-80C255.17,-80 138.83,-80 138.83,-80 135.17,-80 131.5,-76.33 131.5,-72.67 131.5,-72.67 131.5,-65.33 131.5,-65.33 131.5,-61.67 135.17,-58 138.83,-58 138.83,-58 255.17,-58 255.17,-58 258.83,-58 262.5,-61.67 262.5,-65.33 262.5,-65.33 262.5,-72.67 262.5,-72.67 262.5,-76.33 258.83,-80 255.17,-80"/>
<text text-anchor="middle" x="197" y="-66.2" font-family="Gentium Basic" font-size="11.00">Vertex Negative Triangle</text>
</g>
<!-- tri&#45;&gt;tri_neg_v -->
<g id="edge17" class="edge">
<title>tri&#45;&gt;tri_neg_v</title>
<g id="a_edge17"><a xlink:href="triangle-vnegtriangle" target="_top">
<path fill="none" stroke="grey" stroke-width="3" d="M180.08,-111.18C183.4,-103.12 187.48,-93.18 190.81,-85.08"/>
<polygon fill="grey" stroke="grey" stroke-width="3" points="178.39,-110.7 178.11,-115.99 181.63,-112.03 178.39,-110.7"/>
<polygon fill="grey" stroke="grey" stroke-width="3" points="192.49,-85.59 192.77,-80.3 189.25,-84.26 192.49,-85.59"/>
</a>
</g>
</g>
<!-- tri_zero -->
<g id="node20" class="node">
<title>tri_zero</title>
<path fill="none" stroke="black" d="M746.67,-138C746.67,-138 683.33,-138 683.33,-138 679.67,-138 676,-134.33 676,-130.67 676,-130.67 676,-123.33 676,-123.33 676,-119.67 679.67,-116 683.33,-116 683.33,-116 746.67,-116 746.67,-116 750.33,-116 754,-119.67 754,-123.33 754,-123.33 754,-130.67 754,-130.67 754,-134.33 750.33,-138 746.67,-138"/>
<text text-anchor="middle" x="715" y="-124.2" font-family="Gentium Basic" font-size="11.00">Zero Triangle</text>
</g>
<!-- tri_neg&#45;&gt;tri_zero -->
<g id="edge14" class="edge">
<title>tri_neg&#45;&gt;tri_zero</title>
<g id="a_edge14"><a xlink:href="negtriangle-zerotriangle" target="_top">
<path fill="none" stroke="grey" stroke-width="3" d="M608.24,-173.99C630.2,-164.53 663.17,-150.33 686.66,-140.21"/>
<polygon fill="grey" stroke="grey" stroke-width="3" points="687.62,-141.7 691.52,-138.11 686.24,-138.48 687.62,-141.7"/>
</a>
</g>
</g>
<!-- min_k_cycle -->
<g id="node21" class="node">
<title>min_k_cycle</title>
<path fill="none" stroke="black" d="M540.67,-138C540.67,-138 485.33,-138 485.33,-138 481.67,-138 478,-134.33 478,-130.67 478,-130.67 478,-123.33 478,-123.33 478,-119.67 481.67,-116 485.33,-116 485.33,-116 540.67,-116 540.67,-116 544.33,-116 548,-119.67 548,-123.33 548,-123.33 548,-130.67 548,-130.67 548,-134.33 544.33,-138 540.67,-138"/>
<text text-anchor="middle" x="513" y="-124.2" font-family="Gentium Basic" font-size="11.00">Min k&#45;Cycle</text>
</g>
<!-- tri_neg&#45;&gt;min_k_cycle -->
<g id="edge12" class="edge">
<title>tri_neg&#45;&gt;min_k_cycle</title>
<g id="a_edge12"><a xlink:href="negtriangle-mincycle" target="_top">
<path fill="none" stroke="grey" stroke-width="3" d="M572.13,-173.99C560.5,-164.94 543.29,-151.56 530.43,-141.55"/>
<polygon fill="grey" stroke="grey" stroke-width="3" points="531.27,-139.99 526.25,-138.3 529.12,-142.75 531.27,-139.99"/>
</a>
</g>
</g>
<!-- metric -->
<g id="node22" class="node">
<title>metric</title>
<path fill="none" stroke="black" d="M607.17,-138C607.17,-138 562.83,-138 562.83,-138 559.17,-138 555.5,-134.33 555.5,-130.67 555.5,-130.67 555.5,-123.33 555.5,-123.33 555.5,-119.67 559.17,-116 562.83,-116 562.83,-116 607.17,-116 607.17,-116 610.83,-116 614.5,-119.67 614.5,-123.33 614.5,-123.33 614.5,-130.67 614.5,-130.67 614.5,-134.33 610.83,-138 607.17,-138"/>
<text text-anchor="middle" x="585" y="-124.2" font-family="Gentium Basic" font-size="11.00">Metricity</text>
</g>
<!-- tri_neg&#45;&gt;metric -->
<g id="edge13" class="edge">
<title>tri_neg&#45;&gt;metric</title>
<g id="a_edge13"><a xlink:href="negtriangle-metric" target="_top">
<path fill="none" stroke="grey" stroke-width="3" d="M585,-168.92C585,-161.04 585,-151.42 585,-143.48"/>
<polygon fill="grey" stroke="grey" stroke-width="3" points="583.25,-168.99 585,-173.99 586.75,-168.99 583.25,-168.99"/>
<polygon fill="grey" stroke="grey" stroke-width="3" points="586.75,-143.3 585,-138.3 583.25,-143.3 586.75,-143.3"/>
</a>
</g>
</g>
<!-- min_k_cycle&#45;&gt;apsp -->
<g id="edge15" class="edge">
<title>min_k_cycle&#45;&gt;apsp</title>
<g id="a_edge15"><a xlink:href="mincycle-APSP" target="_top">
<path fill="none" stroke="grey" stroke-width="3" d="M512.65,-138.26C512.14,-159.91 512.05,-211.76 521,-254 523.26,-264.68 527.52,-276.21 531.22,-285.05"/>
<polygon fill="grey" stroke="grey" stroke-width="3" points="529.61,-285.75 533.19,-289.66 532.83,-284.38 529.61,-285.75"/>
</a>
</g>
</g>
<!-- submat_sum -->
<g id="node23" class="node">
<title>submat_sum</title>
<path fill="none" stroke="black" d="M547.67,-80C547.67,-80 478.33,-80 478.33,-80 474.67,-80 471,-76.33 471,-72.67 471,-72.67 471,-65.33 471,-65.33 471,-61.67 474.67,-58 478.33,-58 478.33,-58 547.67,-58 547.67,-58 551.33,-58 555,-61.67 555,-65.33 555,-65.33 555,-72.67 555,-72.67 555,-76.33 551.33,-80 547.67,-80"/>
<text text-anchor="middle" x="513" y="-66.2" font-family="Gentium Basic" font-size="11.00">Min Submatrix</text>
</g>
<!-- min_k_cycle&#45;&gt;submat_sum -->
<g id="edge16" class="edge">
<title>min_k_cycle&#45;&gt;submat_sum</title>
<g id="a_edge16"><a xlink:href="mincycle-minsubmatrix" target="_top">
<path fill="none" stroke="grey" stroke-width="3" d="M513,-110.92C513,-103.04 513,-93.42 513,-85.48"/>
<polygon fill="grey" stroke="grey" stroke-width="3" points="511.25,-110.99 513,-115.99 514.75,-110.99 511.25,-110.99"/>
<polygon fill="grey" stroke="grey" stroke-width="3" points="514.75,-85.3 513,-80.3 511.25,-85.3 514.75,-85.3"/>
</a>
</g>
</g>
<!-- reach -->
<g id="node24" class="node">
<title>reach</title>
<path fill="none" stroke="black" d="M109.67,-138C109.67,-138 14.33,-138 14.33,-138 10.67,-138 7,-134.33 7,-130.67 7,-130.67 7,-123.33 7,-123.33 7,-119.67 10.67,-116 14.33,-116 14.33,-116 109.67,-116 109.67,-116 113.33,-116 117,-119.67 117,-123.33 117,-123.33 117,-130.67 117,-130.67 117,-134.33 113.33,-138 109.67,-138"/>
<text text-anchor="middle" x="62" y="-124.2" font-family="Gentium Basic" font-size="11.00">All&#45;Pair Reachability</text>
</g>
<!-- reach&#45;&gt;mat_prod_bool -->
<g id="edge19" class="edge">
<title>reach&#45;&gt;mat_prod_bool</title>
<g id="a_edge19"><a xlink:href="reachability-BMM" target="_top">
<path fill="none" stroke="grey" stroke-width="3" d="M62,-110.92C62,-103.04 62,-93.42 62,-85.48"/>
<polygon fill="grey" stroke="grey" stroke-width="3" points="60.25,-110.99 62,-115.99 63.75,-110.99 60.25,-110.99"/>
<polygon fill="grey" stroke="grey" stroke-width="3" points="63.75,-85.3 62,-80.3 60.25,-85.3 63.75,-85.3"/>
</a>
</g>
</g>
<!-- sum3_conv&#45;&gt;tri_zero -->
<g id="edge23" class="edge">
<title>sum3_conv&#45;&gt;tri_zero</title>
<g id="a_edge23"><a xlink:href="conv3sum-zerotriangle" target="_top">
<path fill="none" stroke="grey" stroke-width="3" d="M764.21,-231.88C754.67,-211.74 733.25,-166.52 722.08,-142.94"/>
<polygon fill="grey" stroke="grey" stroke-width="3" points="723.58,-142.03 719.86,-138.26 720.42,-143.53 723.58,-142.03"/>
</a>
</g>
</g>
</g>
</svg>
