<?xml version="1.0" encoding="UTF-8" standalone="no"?>
<!DOCTYPE svg PUBLIC "-//W3C//DTD SVG 1.1//EN"
 "http://www.w3.org/Graphics/SVG/1.1/DTD/svg11.dtd">
<!-- Generated by graphviz version 2.43.0 (0)
 -->
<!-- Title: reductions Pages: 1 -->
<svg width="916pt" height="262pt"
 viewBox="0.00 0.00 915.50 262.00" xmlns="http://www.w3.org/2000/svg" xmlns:xlink="http://www.w3.org/1999/xlink">
<g id="graph0" class="graph" transform="scale(1 1) rotate(0) translate(4 258)">
<title>reductions</title>
<polygon fill="white" stroke="transparent" points="-4,4 -4,-258 911.5,-258 911.5,4 -4,4"/>
<!-- sat -->
<g id="node1" class="node">
<title>sat</title>
<path fill="none" stroke="black" d="M393.17,-254C393.17,-254 353.83,-254 353.83,-254 350.17,-254 346.5,-250.33 346.5,-246.67 346.5,-246.67 346.5,-239.33 346.5,-239.33 346.5,-235.67 350.17,-232 353.83,-232 353.83,-232 393.17,-232 393.17,-232 396.83,-232 400.5,-235.67 400.5,-239.33 400.5,-239.33 400.5,-246.67 400.5,-246.67 400.5,-250.33 396.83,-254 393.17,-254"/>
<text text-anchor="middle" x="373.5" y="-240.2" font-family="Gentium Basic" font-size="11.00">k&#45;SAT</text>
</g>
<!-- ov -->
<g id="node2" class="node">
<title>ov</title>
<path fill="none" stroke="black" d="M232.67,-196C232.67,-196 146.33,-196 146.33,-196 142.67,-196 139,-192.33 139,-188.67 139,-188.67 139,-181.33 139,-181.33 139,-177.67 142.67,-174 146.33,-174 146.33,-174 232.67,-174 232.67,-174 236.33,-174 240,-177.67 240,-181.33 240,-181.33 240,-188.67 240,-188.67 240,-192.33 236.33,-196 232.67,-196"/>
<text text-anchor="middle" x="189.5" y="-182.2" font-family="Gentium Basic" font-size="11.00">Orthogonal Vector</text>
</g>
<!-- sat&#45;&gt;ov -->
<g id="edge1" class="edge">
<title>sat&#45;&gt;ov</title>
<path fill="none" stroke="grey" stroke-width="2" d="M346.35,-233.74C314.91,-224.17 262.9,-208.34 227.47,-197.55"/>
<polygon fill="grey" stroke="grey" stroke-width="2" points="227.66,-195.78 222.36,-196 226.64,-199.13 227.66,-195.78"/>
</g>
<!-- dom -->
<g id="node5" class="node">
<title>dom</title>
<path fill="none" stroke="black" d="M372.67,-196C372.67,-196 292.33,-196 292.33,-196 288.67,-196 285,-192.33 285,-188.67 285,-188.67 285,-181.33 285,-181.33 285,-177.67 288.67,-174 292.33,-174 292.33,-174 372.67,-174 372.67,-174 376.33,-174 380,-177.67 380,-181.33 380,-181.33 380,-188.67 380,-188.67 380,-192.33 376.33,-196 372.67,-196"/>
<text text-anchor="middle" x="332.5" y="-182.2" font-family="Gentium Basic" font-size="11.00">k&#45;Dominating Set</text>
</g>
<!-- sat&#45;&gt;dom -->
<g id="edge2" class="edge">
<title>sat&#45;&gt;dom</title>
<path fill="none" stroke="grey" stroke-width="2" d="M366.17,-231.99C359.72,-223.18 350.26,-210.25 343,-200.34"/>
<polygon fill="grey" stroke="grey" stroke-width="2" points="344.41,-199.3 340.04,-196.3 341.59,-201.37 344.41,-199.3"/>
</g>
<!-- clique -->
<g id="node6" class="node">
<title>clique</title>
<path fill="none" stroke="black" d="M434.67,-196C434.67,-196 394.33,-196 394.33,-196 390.67,-196 387,-192.33 387,-188.67 387,-188.67 387,-181.33 387,-181.33 387,-177.67 390.67,-174 394.33,-174 394.33,-174 434.67,-174 434.67,-174 438.33,-174 442,-177.67 442,-181.33 442,-181.33 442,-188.67 442,-188.67 442,-192.33 438.33,-196 434.67,-196"/>
<text text-anchor="middle" x="414.5" y="-182.2" font-family="Gentium Basic" font-size="11.00">k&#45;Clique</text>
</g>
<!-- sat&#45;&gt;clique -->
<g id="edge3" class="edge">
<title>sat&#45;&gt;clique</title>
<path fill="none" stroke="grey" stroke-width="2" d="M380.83,-231.99C387.28,-223.18 396.74,-210.25 404,-200.34"/>
<polygon fill="grey" stroke="grey" stroke-width="2" points="405.41,-201.37 406.96,-196.3 402.59,-199.3 405.41,-201.37"/>
</g>
<!-- subset_sum -->
<g id="node7" class="node">
<title>subset_sum</title>
<path fill="none" stroke="black" d="M510.67,-196C510.67,-196 456.33,-196 456.33,-196 452.67,-196 449,-192.33 449,-188.67 449,-188.67 449,-181.33 449,-181.33 449,-177.67 452.67,-174 456.33,-174 456.33,-174 510.67,-174 510.67,-174 514.33,-174 518,-177.67 518,-181.33 518,-181.33 518,-188.67 518,-188.67 518,-192.33 514.33,-196 510.67,-196"/>
<text text-anchor="middle" x="483.5" y="-182.2" font-family="Gentium Basic" font-size="11.00">Subset Sum</text>
</g>
<!-- sat&#45;&gt;subset_sum -->
<g id="edge4" class="edge">
<title>sat&#45;&gt;subset_sum</title>
<path fill="none" stroke="grey" stroke-width="2" d="M393.17,-231.99C411.59,-222.61 439.18,-208.56 459.02,-198.46"/>
<polygon fill="grey" stroke="grey" stroke-width="2" points="459.97,-199.94 463.63,-196.11 458.38,-196.82 459.97,-199.94"/>
</g>
<!-- diam -->
<g id="node10" class="node">
<title>diam</title>
<path fill="none" stroke="black" d="M51.67,-138C51.67,-138 7.33,-138 7.33,-138 3.67,-138 0,-134.33 0,-130.67 0,-130.67 0,-123.33 0,-123.33 0,-119.67 3.67,-116 7.33,-116 7.33,-116 51.67,-116 51.67,-116 55.33,-116 59,-119.67 59,-123.33 59,-123.33 59,-130.67 59,-130.67 59,-134.33 55.33,-138 51.67,-138"/>
<text text-anchor="middle" x="29.5" y="-124.2" font-family="Gentium Basic" font-size="11.00">Diameter</text>
</g>
<!-- ov&#45;&gt;diam -->
<g id="edge7" class="edge">
<title>ov&#45;&gt;diam</title>
<g id="a_edge7"><a xlink:href="OV-diameter" target="_top">
<path fill="none" stroke="grey" stroke-width="2" d="M160.9,-173.99C133.45,-164.38 92.01,-149.88 63.03,-139.73"/>
<polygon fill="grey" stroke="grey" stroke-width="2" points="63.42,-138.02 58.13,-138.02 62.27,-141.32 63.42,-138.02"/>
</a>
</g>
</g>
<!-- regex -->
<g id="node11" class="node">
<title>regex</title>
<path fill="none" stroke="black" d="M147.67,-138C147.67,-138 73.33,-138 73.33,-138 69.67,-138 66,-134.33 66,-130.67 66,-130.67 66,-123.33 66,-123.33 66,-119.67 69.67,-116 73.33,-116 73.33,-116 147.67,-116 147.67,-116 151.33,-116 155,-119.67 155,-123.33 155,-123.33 155,-130.67 155,-130.67 155,-134.33 151.33,-138 147.67,-138"/>
<text text-anchor="middle" x="110.5" y="-124.2" font-family="Gentium Basic" font-size="11.00">Regex Matching</text>
</g>
<!-- ov&#45;&gt;regex -->
<g id="edge8" class="edge">
<title>ov&#45;&gt;regex</title>
<g id="a_edge8"><a xlink:href="OV-regex" target="_top">
<path fill="none" stroke="grey" stroke-width="2" d="M175.38,-173.99C162.43,-164.81 143.16,-151.15 128.99,-141.11"/>
<polygon fill="grey" stroke="grey" stroke-width="2" points="129.86,-139.58 124.77,-138.11 127.83,-142.43 129.86,-139.58"/>
</a>
</g>
</g>
<!-- lcs -->
<g id="node12" class="node">
<title>lcs</title>
<path fill="none" stroke="black" d="M209.17,-138C209.17,-138 169.83,-138 169.83,-138 166.17,-138 162.5,-134.33 162.5,-130.67 162.5,-130.67 162.5,-123.33 162.5,-123.33 162.5,-119.67 166.17,-116 169.83,-116 169.83,-116 209.17,-116 209.17,-116 212.83,-116 216.5,-119.67 216.5,-123.33 216.5,-123.33 216.5,-130.67 216.5,-130.67 216.5,-134.33 212.83,-138 209.17,-138"/>
<text text-anchor="middle" x="189.5" y="-124.2" font-family="Gentium Basic" font-size="11.00">LCS</text>
</g>
<!-- ov&#45;&gt;lcs -->
<g id="edge9" class="edge">
<title>ov&#45;&gt;lcs</title>
<path fill="none" stroke="grey" stroke-width="2" d="M189.5,-173.99C189.5,-165.49 189.5,-153.17 189.5,-143.42"/>
<polygon fill="grey" stroke="grey" stroke-width="2" points="191.25,-143.3 189.5,-138.3 187.75,-143.3 191.25,-143.3"/>
</g>
<!-- ed -->
<g id="node13" class="node">
<title>ed</title>
<path fill="none" stroke="black" d="M292.17,-138C292.17,-138 230.83,-138 230.83,-138 227.17,-138 223.5,-134.33 223.5,-130.67 223.5,-130.67 223.5,-123.33 223.5,-123.33 223.5,-119.67 227.17,-116 230.83,-116 230.83,-116 292.17,-116 292.17,-116 295.83,-116 299.5,-119.67 299.5,-123.33 299.5,-123.33 299.5,-130.67 299.5,-130.67 299.5,-134.33 295.83,-138 292.17,-138"/>
<text text-anchor="middle" x="261.5" y="-124.2" font-family="Gentium Basic" font-size="11.00">Edit Distance</text>
</g>
<!-- ov&#45;&gt;ed -->
<g id="edge10" class="edge">
<title>ov&#45;&gt;ed</title>
<path fill="none" stroke="grey" stroke-width="2" d="M202.37,-173.99C214,-164.94 231.21,-151.56 244.07,-141.55"/>
<polygon fill="grey" stroke="grey" stroke-width="2" points="245.38,-142.75 248.25,-138.3 243.23,-139.99 245.38,-142.75"/>
</g>
<!-- apsp -->
<g id="node3" class="node">
<title>apsp</title>
<path fill="none" stroke="black" d="M685.17,-254C685.17,-254 583.83,-254 583.83,-254 580.17,-254 576.5,-250.33 576.5,-246.67 576.5,-246.67 576.5,-239.33 576.5,-239.33 576.5,-235.67 580.17,-232 583.83,-232 583.83,-232 685.17,-232 685.17,-232 688.83,-232 692.5,-235.67 692.5,-239.33 692.5,-239.33 692.5,-246.67 692.5,-246.67 692.5,-250.33 688.83,-254 685.17,-254"/>
<text text-anchor="middle" x="634.5" y="-240.2" font-family="Gentium Basic" font-size="11.00">All&#45;Pair Shortest Path</text>
</g>
<!-- mat_prod_minplus -->
<g id="node16" class="node">
<title>mat_prod_minplus</title>
<path fill="none" stroke="black" d="M728.17,-196C728.17,-196 622.83,-196 622.83,-196 619.17,-196 615.5,-192.33 615.5,-188.67 615.5,-188.67 615.5,-181.33 615.5,-181.33 615.5,-177.67 619.17,-174 622.83,-174 622.83,-174 728.17,-174 728.17,-174 731.83,-174 735.5,-177.67 735.5,-181.33 735.5,-181.33 735.5,-188.67 735.5,-188.67 735.5,-192.33 731.83,-196 728.17,-196"/>
<text text-anchor="middle" x="675.5" y="-182.2" font-family="Gentium Basic" font-size="11.00">(Min,+) Matrix Product</text>
</g>
<!-- apsp&#45;&gt;mat_prod_minplus -->
<g id="edge11" class="edge">
<title>apsp&#45;&gt;mat_prod_minplus</title>
<g id="a_edge11"><a xlink:href="APSP-minplus" target="_top">
<path fill="none" stroke="grey" stroke-width="2" d="M641.83,-231.99C648.28,-223.18 657.74,-210.25 665,-200.34"/>
<polygon fill="grey" stroke="grey" stroke-width="2" points="666.41,-201.37 667.96,-196.3 663.59,-199.3 666.41,-201.37"/>
</a>
</g>
</g>
<!-- sum3 -->
<g id="node4" class="node">
<title>sum3</title>
<path fill="none" stroke="black" d="M798.17,-196C798.17,-196 758.83,-196 758.83,-196 755.17,-196 751.5,-192.33 751.5,-188.67 751.5,-188.67 751.5,-181.33 751.5,-181.33 751.5,-177.67 755.17,-174 758.83,-174 758.83,-174 798.17,-174 798.17,-174 801.83,-174 805.5,-177.67 805.5,-181.33 805.5,-181.33 805.5,-188.67 805.5,-188.67 805.5,-192.33 801.83,-196 798.17,-196"/>
<text text-anchor="middle" x="778.5" y="-182.2" font-family="Gentium Basic" font-size="11.00">3&#45;Sum</text>
</g>
<!-- sum3_conv -->
<g id="node26" class="node">
<title>sum3_conv</title>
<path fill="none" stroke="black" d="M822.67,-138C822.67,-138 734.33,-138 734.33,-138 730.67,-138 727,-134.33 727,-130.67 727,-130.67 727,-123.33 727,-123.33 727,-119.67 730.67,-116 734.33,-116 734.33,-116 822.67,-116 822.67,-116 826.33,-116 830,-119.67 830,-123.33 830,-123.33 830,-130.67 830,-130.67 830,-134.33 826.33,-138 822.67,-138"/>
<text text-anchor="middle" x="778.5" y="-124.2" font-family="Gentium Basic" font-size="11.00">Convolution 3&#45;Sum</text>
</g>
<!-- sum3&#45;&gt;sum3_conv -->
<g id="edge22" class="edge">
<title>sum3&#45;&gt;sum3_conv</title>
<g id="a_edge22"><a xlink:href="3sum-conv3sum" target="_top">
<path fill="none" stroke="grey" stroke-width="2" d="M778.5,-168.92C778.5,-161.04 778.5,-151.42 778.5,-143.48"/>
<polygon fill="grey" stroke="grey" stroke-width="2" points="776.75,-168.99 778.5,-173.99 780.25,-168.99 776.75,-168.99"/>
<polygon fill="grey" stroke="grey" stroke-width="2" points="780.25,-143.3 778.5,-138.3 776.75,-143.3 780.25,-143.3"/>
</a>
</g>
</g>
<!-- collinear -->
<g id="node27" class="node">
<title>collinear</title>
<path fill="none" stroke="black" d="M900.17,-138C900.17,-138 844.83,-138 844.83,-138 841.17,-138 837.5,-134.33 837.5,-130.67 837.5,-130.67 837.5,-123.33 837.5,-123.33 837.5,-119.67 841.17,-116 844.83,-116 844.83,-116 900.17,-116 900.17,-116 903.83,-116 907.5,-119.67 907.5,-123.33 907.5,-123.33 907.5,-130.67 907.5,-130.67 907.5,-134.33 903.83,-138 900.17,-138"/>
<text text-anchor="middle" x="872.5" y="-124.2" font-family="Gentium Basic" font-size="11.00">Collinearity</text>
</g>
<!-- sum3&#45;&gt;collinear -->
<g id="edge23" class="edge">
<title>sum3&#45;&gt;collinear</title>
<g id="a_edge23"><a xlink:href="3sum-collinearity" target="_top">
<path fill="none" stroke="grey" stroke-width="2" d="M795.31,-173.99C810.85,-164.73 834.03,-150.92 850.93,-140.85"/>
<polygon fill="grey" stroke="grey" stroke-width="2" points="852.12,-142.18 855.52,-138.11 850.33,-139.17 852.12,-142.18"/>
</a>
</g>
</g>
<!-- tri -->
<g id="node18" class="node">
<title>tri</title>
<path fill="none" stroke="black" d="M471.67,-138C471.67,-138 431.33,-138 431.33,-138 427.67,-138 424,-134.33 424,-130.67 424,-130.67 424,-123.33 424,-123.33 424,-119.67 427.67,-116 431.33,-116 431.33,-116 471.67,-116 471.67,-116 475.33,-116 479,-119.67 479,-123.33 479,-123.33 479,-130.67 479,-130.67 479,-134.33 475.33,-138 471.67,-138"/>
<text text-anchor="middle" x="451.5" y="-124.2" font-family="Gentium Basic" font-size="11.00">Triangle</text>
</g>
<!-- clique&#45;&gt;tri -->
<g id="edge5" class="edge">
<title>clique&#45;&gt;tri</title>
<path fill="none" stroke="grey" stroke-width="2" d="M421.11,-173.99C426.88,-165.26 435.32,-152.48 441.85,-142.61"/>
<polygon fill="grey" stroke="grey" stroke-width="2" points="443.4,-143.44 444.69,-138.3 440.48,-141.51 443.4,-143.44"/>
</g>
<!-- knapsack -->
<g id="node8" class="node">
<title>knapsack</title>
<path fill="none" stroke="black" d="M864.67,-196C864.67,-196 820.33,-196 820.33,-196 816.67,-196 813,-192.33 813,-188.67 813,-188.67 813,-181.33 813,-181.33 813,-177.67 816.67,-174 820.33,-174 820.33,-174 864.67,-174 864.67,-174 868.33,-174 872,-177.67 872,-181.33 872,-181.33 872,-188.67 872,-188.67 872,-192.33 868.33,-196 864.67,-196"/>
<text text-anchor="middle" x="842.5" y="-182.2" font-family="Gentium Basic" font-size="11.00">Knapsack</text>
</g>
<!-- hs -->
<g id="node9" class="node">
<title>hs</title>
<path fill="none" stroke="black" d="M214.67,-254C214.67,-254 164.33,-254 164.33,-254 160.67,-254 157,-250.33 157,-246.67 157,-246.67 157,-239.33 157,-239.33 157,-235.67 160.67,-232 164.33,-232 164.33,-232 214.67,-232 214.67,-232 218.33,-232 222,-235.67 222,-239.33 222,-239.33 222,-246.67 222,-246.67 222,-250.33 218.33,-254 214.67,-254"/>
<text text-anchor="middle" x="189.5" y="-240.2" font-family="Gentium Basic" font-size="11.00">Hitting Set</text>
</g>
<!-- hs&#45;&gt;ov -->
<g id="edge6" class="edge">
<title>hs&#45;&gt;ov</title>
<path fill="none" stroke="grey" stroke-width="2" d="M189.5,-231.99C189.5,-223.49 189.5,-211.17 189.5,-201.42"/>
<polygon fill="grey" stroke="grey" stroke-width="2" points="191.25,-201.3 189.5,-196.3 187.75,-201.3 191.25,-201.3"/>
</g>
<!-- mat_prod -->
<g id="node14" class="node">
<title>mat_prod</title>
<path fill="none" stroke="black" d="M397.17,-22C397.17,-22 325.83,-22 325.83,-22 322.17,-22 318.5,-18.33 318.5,-14.67 318.5,-14.67 318.5,-7.33 318.5,-7.33 318.5,-3.67 322.17,0 325.83,0 325.83,0 397.17,0 397.17,0 400.83,0 404.5,-3.67 404.5,-7.33 404.5,-7.33 404.5,-14.67 404.5,-14.67 404.5,-18.33 400.83,-22 397.17,-22"/>
<text text-anchor="middle" x="361.5" y="-8.2" font-family="Gentium Basic" font-size="11.00">Matrix Product</text>
</g>
<!-- mat_prod_bool -->
<g id="node15" class="node">
<title>mat_prod_bool</title>
<path fill="none" stroke="black" d="M416.17,-80C416.17,-80 306.83,-80 306.83,-80 303.17,-80 299.5,-76.33 299.5,-72.67 299.5,-72.67 299.5,-65.33 299.5,-65.33 299.5,-61.67 303.17,-58 306.83,-58 306.83,-58 416.17,-58 416.17,-58 419.83,-58 423.5,-61.67 423.5,-65.33 423.5,-65.33 423.5,-72.67 423.5,-72.67 423.5,-76.33 419.83,-80 416.17,-80"/>
<text text-anchor="middle" x="361.5" y="-66.2" font-family="Gentium Basic" font-size="11.00">Boolean Matrix Product</text>
</g>
<!-- mat_prod_bool&#45;&gt;mat_prod -->
<g id="edge21" class="edge">
<title>mat_prod_bool&#45;&gt;mat_prod</title>
<g id="a_edge21"><a xlink:href="BMM-MM" target="_top">
<path fill="none" stroke="grey" stroke-width="2" d="M361.5,-57.99C361.5,-49.49 361.5,-37.17 361.5,-27.42"/>
<polygon fill="grey" stroke="grey" stroke-width="2" points="363.25,-27.3 361.5,-22.3 359.75,-27.3 363.25,-27.3"/>
</a>
</g>
</g>
<!-- tri_neg -->
<g id="node20" class="node">
<title>tri_neg</title>
<path fill="none" stroke="black" d="M712.17,-138C712.17,-138 628.83,-138 628.83,-138 625.17,-138 621.5,-134.33 621.5,-130.67 621.5,-130.67 621.5,-123.33 621.5,-123.33 621.5,-119.67 625.17,-116 628.83,-116 628.83,-116 712.17,-116 712.17,-116 715.83,-116 719.5,-119.67 719.5,-123.33 719.5,-123.33 719.5,-130.67 719.5,-130.67 719.5,-134.33 715.83,-138 712.17,-138"/>
<text text-anchor="middle" x="670.5" y="-124.2" font-family="Gentium Basic" font-size="11.00">Negative Triangle</text>
</g>
<!-- mat_prod_minplus&#45;&gt;tri_neg -->
<g id="edge12" class="edge">
<title>mat_prod_minplus&#45;&gt;tri_neg</title>
<g id="a_edge12"><a xlink:href="minplus-negtriangle" target="_top">
<path fill="none" stroke="grey" stroke-width="2" d="M674.61,-173.99C673.85,-165.49 672.75,-153.17 671.88,-143.42"/>
<polygon fill="grey" stroke="grey" stroke-width="2" points="673.61,-143.13 671.42,-138.3 670.12,-143.44 673.61,-143.13"/>
</a>
</g>
</g>
<!-- conv_minplus -->
<g id="node17" class="node">
<title>conv_minplus</title>
<path fill="none" stroke="black" d="M824.17,-254C824.17,-254 732.83,-254 732.83,-254 729.17,-254 725.5,-250.33 725.5,-246.67 725.5,-246.67 725.5,-239.33 725.5,-239.33 725.5,-235.67 729.17,-232 732.83,-232 732.83,-232 824.17,-232 824.17,-232 827.83,-232 831.5,-235.67 831.5,-239.33 831.5,-239.33 831.5,-246.67 831.5,-246.67 831.5,-250.33 827.83,-254 824.17,-254"/>
<text text-anchor="middle" x="778.5" y="-240.2" font-family="Gentium Basic" font-size="11.00">(Min,+) Convolution</text>
</g>
<!-- conv_minplus&#45;&gt;sum3 -->
<g id="edge25" class="edge">
<title>conv_minplus&#45;&gt;sum3</title>
<path fill="none" stroke="grey" stroke-width="2" d="M778.5,-231.99C778.5,-223.49 778.5,-211.17 778.5,-201.42"/>
<polygon fill="grey" stroke="grey" stroke-width="2" points="780.25,-201.3 778.5,-196.3 776.75,-201.3 780.25,-201.3"/>
</g>
<!-- conv_minplus&#45;&gt;knapsack -->
<g id="edge27" class="edge">
<title>conv_minplus&#45;&gt;knapsack</title>
<path fill="none" stroke="grey" stroke-width="2" d="M793.92,-228.51C803.91,-219.77 816.88,-208.42 826.9,-199.65"/>
<polygon fill="grey" stroke="grey" stroke-width="2" points="792.55,-227.38 789.94,-231.99 794.86,-230.01 792.55,-227.38"/>
<polygon fill="grey" stroke="grey" stroke-width="2" points="828.11,-200.91 830.72,-196.3 825.81,-198.28 828.11,-200.91"/>
</g>
<!-- conv_minplus&#45;&gt;mat_prod_minplus -->
<g id="edge26" class="edge">
<title>conv_minplus&#45;&gt;mat_prod_minplus</title>
<path fill="none" stroke="grey" stroke-width="2" d="M760.09,-231.99C742.91,-222.65 717.22,-208.68 698.66,-198.59"/>
<polygon fill="grey" stroke="grey" stroke-width="2" points="699.33,-196.96 694.1,-196.11 697.66,-200.04 699.33,-196.96"/>
</g>
<!-- tri&#45;&gt;mat_prod_bool -->
<g id="edge19" class="edge">
<title>tri&#45;&gt;mat_prod_bool</title>
<g id="a_edge19"><a xlink:href="triangle-BMM" target="_top">
<path fill="none" stroke="grey" stroke-width="2" d="M435.41,-115.99C420.53,-106.73 398.33,-92.92 382.15,-82.85"/>
<polygon fill="grey" stroke="grey" stroke-width="2" points="382.92,-81.27 377.75,-80.11 381.08,-84.24 382.92,-81.27"/>
</a>
</g>
</g>
<!-- tri_neg_v -->
<g id="node19" class="node">
<title>tri_neg_v</title>
<path fill="none" stroke="black" d="M554.67,-80C554.67,-80 438.33,-80 438.33,-80 434.67,-80 431,-76.33 431,-72.67 431,-72.67 431,-65.33 431,-65.33 431,-61.67 434.67,-58 438.33,-58 438.33,-58 554.67,-58 554.67,-58 558.33,-58 562,-61.67 562,-65.33 562,-65.33 562,-72.67 562,-72.67 562,-76.33 558.33,-80 554.67,-80"/>
<text text-anchor="middle" x="496.5" y="-66.2" font-family="Gentium Basic" font-size="11.00">Vertex Negative Triangle</text>
</g>
<!-- tri&#45;&gt;tri_neg_v -->
<g id="edge18" class="edge">
<title>tri&#45;&gt;tri_neg_v</title>
<g id="a_edge18"><a xlink:href="triangle-vnegtriangle" target="_top">
<path fill="none" stroke="grey" stroke-width="2" d="M462.76,-111.98C469.56,-103.53 478.19,-92.78 485.03,-84.28"/>
<polygon fill="grey" stroke="grey" stroke-width="2" points="461.31,-110.99 459.55,-115.99 464.04,-113.19 461.31,-110.99"/>
<polygon fill="grey" stroke="grey" stroke-width="2" points="486.45,-85.3 488.22,-80.3 483.72,-83.11 486.45,-85.3"/>
</a>
</g>
</g>
<!-- tri_zero -->
<g id="node21" class="node">
<title>tri_zero</title>
<path fill="none" stroke="black" d="M799.17,-80C799.17,-80 735.83,-80 735.83,-80 732.17,-80 728.5,-76.33 728.5,-72.67 728.5,-72.67 728.5,-65.33 728.5,-65.33 728.5,-61.67 732.17,-58 735.83,-58 735.83,-58 799.17,-58 799.17,-58 802.83,-58 806.5,-61.67 806.5,-65.33 806.5,-65.33 806.5,-72.67 806.5,-72.67 806.5,-76.33 802.83,-80 799.17,-80"/>
<text text-anchor="middle" x="767.5" y="-66.2" font-family="Gentium Basic" font-size="11.00">Zero Triangle</text>
</g>
<!-- tri_neg&#45;&gt;tri_zero -->
<g id="edge15" class="edge">
<title>tri_neg&#45;&gt;tri_zero</title>
<g id="a_edge15"><a xlink:href="negtriangle-zerotriangle" target="_top">
<path fill="none" stroke="grey" stroke-width="2" d="M687.84,-115.99C703.88,-106.73 727.8,-92.92 745.25,-82.85"/>
<polygon fill="grey" stroke="grey" stroke-width="2" points="746.53,-84.13 749.98,-80.11 744.78,-81.1 746.53,-84.13"/>
</a>
</g>
</g>
<!-- min_k_cycle -->
<g id="node22" class="node">
<title>min_k_cycle</title>
<path fill="none" stroke="black" d="M632.17,-80C632.17,-80 576.83,-80 576.83,-80 573.17,-80 569.5,-76.33 569.5,-72.67 569.5,-72.67 569.5,-65.33 569.5,-65.33 569.5,-61.67 573.17,-58 576.83,-58 576.83,-58 632.17,-58 632.17,-58 635.83,-58 639.5,-61.67 639.5,-65.33 639.5,-65.33 639.5,-72.67 639.5,-72.67 639.5,-76.33 635.83,-80 632.17,-80"/>
<text text-anchor="middle" x="604.5" y="-66.2" font-family="Gentium Basic" font-size="11.00">Min k&#45;Cycle</text>
</g>
<!-- tri_neg&#45;&gt;min_k_cycle -->
<g id="edge13" class="edge">
<title>tri_neg&#45;&gt;min_k_cycle</title>
<g id="a_edge13"><a xlink:href="negtriangle-mincycle" target="_top">
<path fill="none" stroke="grey" stroke-width="2" d="M658.7,-115.99C648.04,-106.94 632.26,-93.56 620.48,-83.55"/>
<polygon fill="grey" stroke="grey" stroke-width="2" points="621.59,-82.2 616.64,-80.3 619.32,-84.87 621.59,-82.2"/>
</a>
</g>
</g>
<!-- metric -->
<g id="node23" class="node">
<title>metric</title>
<path fill="none" stroke="black" d="M698.67,-80C698.67,-80 654.33,-80 654.33,-80 650.67,-80 647,-76.33 647,-72.67 647,-72.67 647,-65.33 647,-65.33 647,-61.67 650.67,-58 654.33,-58 654.33,-58 698.67,-58 698.67,-58 702.33,-58 706,-61.67 706,-65.33 706,-65.33 706,-72.67 706,-72.67 706,-76.33 702.33,-80 698.67,-80"/>
<text text-anchor="middle" x="676.5" y="-66.2" font-family="Gentium Basic" font-size="11.00">Metricity</text>
</g>
<!-- tri_neg&#45;&gt;metric -->
<g id="edge14" class="edge">
<title>tri_neg&#45;&gt;metric</title>
<g id="a_edge14"><a xlink:href="negtriangle-metric" target="_top">
<path fill="none" stroke="grey" stroke-width="2" d="M672.12,-110.92C672.96,-103.04 673.99,-93.42 674.84,-85.48"/>
<polygon fill="grey" stroke="grey" stroke-width="2" points="670.37,-110.83 671.57,-115.99 673.85,-111.2 670.37,-110.83"/>
<polygon fill="grey" stroke="grey" stroke-width="2" points="676.6,-85.46 675.4,-80.3 673.12,-85.09 676.6,-85.46"/>
</a>
</g>
</g>
<!-- min_k_cycle&#45;&gt;apsp -->
<g id="edge16" class="edge">
<title>min_k_cycle&#45;&gt;apsp</title>
<g id="a_edge16"><a xlink:href="mincycle-APSP" target="_top">
<path fill="none" stroke="grey" stroke-width="2" d="M603.86,-80C602.76,-101.6 601.56,-154 612.5,-196 615.36,-206.99 620.88,-218.51 625.67,-227.28"/>
<polygon fill="grey" stroke="grey" stroke-width="2" points="624.26,-228.34 628.24,-231.84 627.31,-226.62 624.26,-228.34"/>
</a>
</g>
</g>
<!-- submat_sum -->
<g id="node24" class="node">
<title>submat_sum</title>
<path fill="none" stroke="black" d="M651.17,-22C651.17,-22 557.83,-22 557.83,-22 554.17,-22 550.5,-18.33 550.5,-14.67 550.5,-14.67 550.5,-7.33 550.5,-7.33 550.5,-3.67 554.17,0 557.83,0 557.83,0 651.17,0 651.17,0 654.83,0 658.5,-3.67 658.5,-7.33 658.5,-7.33 658.5,-14.67 658.5,-14.67 658.5,-18.33 654.83,-22 651.17,-22"/>
<text text-anchor="middle" x="604.5" y="-8.2" font-family="Gentium Basic" font-size="11.00">Min&#45;Sum Submatrix</text>
</g>
<!-- min_k_cycle&#45;&gt;submat_sum -->
<g id="edge17" class="edge">
<title>min_k_cycle&#45;&gt;submat_sum</title>
<g id="a_edge17"><a xlink:href="mincycle-minsubmatrix" target="_top">
<path fill="none" stroke="grey" stroke-width="2" d="M604.5,-52.92C604.5,-45.04 604.5,-35.42 604.5,-27.48"/>
<polygon fill="grey" stroke="grey" stroke-width="2" points="602.75,-52.99 604.5,-57.99 606.25,-52.99 602.75,-52.99"/>
<polygon fill="grey" stroke="grey" stroke-width="2" points="606.25,-27.3 604.5,-22.3 602.75,-27.3 606.25,-27.3"/>
</a>
</g>
</g>
<!-- reach -->
<g id="node25" class="node">
<title>reach</title>
<path fill="none" stroke="black" d="M409.17,-138C409.17,-138 313.83,-138 313.83,-138 310.17,-138 306.5,-134.33 306.5,-130.67 306.5,-130.67 306.5,-123.33 306.5,-123.33 306.5,-119.67 310.17,-116 313.83,-116 313.83,-116 409.17,-116 409.17,-116 412.83,-116 416.5,-119.67 416.5,-123.33 416.5,-123.33 416.5,-130.67 416.5,-130.67 416.5,-134.33 412.83,-138 409.17,-138"/>
<text text-anchor="middle" x="361.5" y="-124.2" font-family="Gentium Basic" font-size="11.00">All&#45;Pair Reachability</text>
</g>
<!-- reach&#45;&gt;mat_prod_bool -->
<g id="edge20" class="edge">
<title>reach&#45;&gt;mat_prod_bool</title>
<g id="a_edge20"><a xlink:href="reachability-BMM" target="_top">
<path fill="none" stroke="grey" stroke-width="2" d="M361.5,-110.92C361.5,-103.04 361.5,-93.42 361.5,-85.48"/>
<polygon fill="grey" stroke="grey" stroke-width="2" points="359.75,-110.99 361.5,-115.99 363.25,-110.99 359.75,-110.99"/>
<polygon fill="grey" stroke="grey" stroke-width="2" points="363.25,-85.3 361.5,-80.3 359.75,-85.3 363.25,-85.3"/>
</a>
</g>
</g>
<!-- sum3_conv&#45;&gt;tri_zero -->
<g id="edge24" class="edge">
<title>sum3_conv&#45;&gt;tri_zero</title>
<path fill="none" stroke="grey" stroke-width="2" d="M776.53,-115.99C774.86,-107.49 772.44,-95.17 770.53,-85.42"/>
<polygon fill="grey" stroke="grey" stroke-width="2" points="772.2,-84.87 769.52,-80.3 768.77,-85.55 772.2,-84.87"/>
</g>
</g>
</svg>
