<?xml version="1.0" encoding="UTF-8" standalone="no"?>
<!DOCTYPE svg PUBLIC "-//W3C//DTD SVG 1.1//EN"
 "http://www.w3.org/Graphics/SVG/1.1/DTD/svg11.dtd">
<!-- Generated by graphviz version 2.43.0 (0)
 -->
<!-- Title: reductions Pages: 1 -->
<svg width="915pt" height="262pt"
 viewBox="0.00 0.00 914.50 262.00" xmlns="http://www.w3.org/2000/svg" xmlns:xlink="http://www.w3.org/1999/xlink">
<g id="graph0" class="graph" transform="scale(1 1) rotate(0) translate(4 258)">
<title>reductions</title>
<polygon fill="white" stroke="transparent" points="-4,4 -4,-258 910.5,-258 910.5,4 -4,4"/>
<!-- sat -->
<g id="node1" class="node">
<title>sat</title>
<path fill="none" stroke="black" d="M329.17,-254C329.17,-254 289.83,-254 289.83,-254 286.17,-254 282.5,-250.33 282.5,-246.67 282.5,-246.67 282.5,-239.33 282.5,-239.33 282.5,-235.67 286.17,-232 289.83,-232 289.83,-232 329.17,-232 329.17,-232 332.83,-232 336.5,-235.67 336.5,-239.33 336.5,-239.33 336.5,-246.67 336.5,-246.67 336.5,-250.33 332.83,-254 329.17,-254"/>
<text text-anchor="middle" x="309.5" y="-240.2" font-family="Gentium Basic" font-size="11.00">k&#45;SAT</text>
</g>
<!-- ov -->
<g id="node2" class="node">
<title>ov</title>
<path fill="none" stroke="black" d="M171.67,-196C171.67,-196 85.33,-196 85.33,-196 81.67,-196 78,-192.33 78,-188.67 78,-188.67 78,-181.33 78,-181.33 78,-177.67 81.67,-174 85.33,-174 85.33,-174 171.67,-174 171.67,-174 175.33,-174 179,-177.67 179,-181.33 179,-181.33 179,-188.67 179,-188.67 179,-192.33 175.33,-196 171.67,-196"/>
<text text-anchor="middle" x="128.5" y="-182.2" font-family="Gentium Basic" font-size="11.00">Orthogonal Vector</text>
</g>
<!-- sat&#45;&gt;ov -->
<g id="edge1" class="edge">
<title>sat&#45;&gt;ov</title>
<path fill="none" stroke="grey" stroke-width="3" d="M282.4,-233.62C251.48,-224.05 200.7,-208.34 165.99,-197.6"/>
<polygon fill="grey" stroke="grey" stroke-width="3" points="166.29,-195.86 160.99,-196.05 165.25,-199.2 166.29,-195.86"/>
</g>
<!-- dom -->
<g id="node5" class="node">
<title>dom</title>
<path fill="none" stroke="black" d="M308.67,-196C308.67,-196 228.33,-196 228.33,-196 224.67,-196 221,-192.33 221,-188.67 221,-188.67 221,-181.33 221,-181.33 221,-177.67 224.67,-174 228.33,-174 228.33,-174 308.67,-174 308.67,-174 312.33,-174 316,-177.67 316,-181.33 316,-181.33 316,-188.67 316,-188.67 316,-192.33 312.33,-196 308.67,-196"/>
<text text-anchor="middle" x="268.5" y="-182.2" font-family="Gentium Basic" font-size="11.00">k&#45;Dominating Set</text>
</g>
<!-- sat&#45;&gt;dom -->
<g id="edge2" class="edge">
<title>sat&#45;&gt;dom</title>
<path fill="none" stroke="grey" stroke-width="3" d="M302.17,-231.99C295.72,-223.18 286.26,-210.25 279,-200.34"/>
<polygon fill="grey" stroke="grey" stroke-width="3" points="280.41,-199.3 276.04,-196.3 277.59,-201.37 280.41,-199.3"/>
</g>
<!-- clique -->
<g id="node6" class="node">
<title>clique</title>
<path fill="none" stroke="black" d="M370.67,-196C370.67,-196 330.33,-196 330.33,-196 326.67,-196 323,-192.33 323,-188.67 323,-188.67 323,-181.33 323,-181.33 323,-177.67 326.67,-174 330.33,-174 330.33,-174 370.67,-174 370.67,-174 374.33,-174 378,-177.67 378,-181.33 378,-181.33 378,-188.67 378,-188.67 378,-192.33 374.33,-196 370.67,-196"/>
<text text-anchor="middle" x="350.5" y="-182.2" font-family="Gentium Basic" font-size="11.00">k&#45;Clique</text>
</g>
<!-- sat&#45;&gt;clique -->
<g id="edge3" class="edge">
<title>sat&#45;&gt;clique</title>
<path fill="none" stroke="grey" stroke-width="3" d="M316.83,-231.99C323.28,-223.18 332.74,-210.25 340,-200.34"/>
<polygon fill="grey" stroke="grey" stroke-width="3" points="341.41,-201.37 342.96,-196.3 338.59,-199.3 341.41,-201.37"/>
</g>
<!-- subset_sum -->
<g id="node7" class="node">
<title>subset_sum</title>
<path fill="none" stroke="black" d="M446.67,-196C446.67,-196 392.33,-196 392.33,-196 388.67,-196 385,-192.33 385,-188.67 385,-188.67 385,-181.33 385,-181.33 385,-177.67 388.67,-174 392.33,-174 392.33,-174 446.67,-174 446.67,-174 450.33,-174 454,-177.67 454,-181.33 454,-181.33 454,-188.67 454,-188.67 454,-192.33 450.33,-196 446.67,-196"/>
<text text-anchor="middle" x="419.5" y="-182.2" font-family="Gentium Basic" font-size="11.00">Subset Sum</text>
</g>
<!-- sat&#45;&gt;subset_sum -->
<g id="edge4" class="edge">
<title>sat&#45;&gt;subset_sum</title>
<path fill="none" stroke="grey" stroke-width="3" d="M329.17,-231.99C347.59,-222.61 375.18,-208.56 395.02,-198.46"/>
<polygon fill="grey" stroke="grey" stroke-width="3" points="395.97,-199.94 399.63,-196.11 394.38,-196.82 395.97,-199.94"/>
</g>
<!-- diam -->
<g id="node10" class="node">
<title>diam</title>
<path fill="none" stroke="black" d="M51.67,-138C51.67,-138 7.33,-138 7.33,-138 3.67,-138 0,-134.33 0,-130.67 0,-130.67 0,-123.33 0,-123.33 0,-119.67 3.67,-116 7.33,-116 7.33,-116 51.67,-116 51.67,-116 55.33,-116 59,-119.67 59,-123.33 59,-123.33 59,-130.67 59,-130.67 59,-134.33 55.33,-138 51.67,-138"/>
<text text-anchor="middle" x="29.5" y="-124.2" font-family="Gentium Basic" font-size="11.00">Diameter</text>
</g>
<!-- ov&#45;&gt;diam -->
<g id="edge7" class="edge">
<title>ov&#45;&gt;diam</title>
<g id="a_edge7"><a xlink:href="OV-diameter" target="_top">
<path fill="none" stroke="grey" stroke-width="3" d="M110.8,-173.99C94.29,-164.65 69.6,-150.68 51.76,-140.59"/>
<polygon fill="grey" stroke="grey" stroke-width="3" points="52.59,-139.05 47.38,-138.11 50.87,-142.1 52.59,-139.05"/>
</a>
</g>
</g>
<!-- regex -->
<g id="node11" class="node">
<title>regex</title>
<path fill="none" stroke="black" d="M147.67,-138C147.67,-138 73.33,-138 73.33,-138 69.67,-138 66,-134.33 66,-130.67 66,-130.67 66,-123.33 66,-123.33 66,-119.67 69.67,-116 73.33,-116 73.33,-116 147.67,-116 147.67,-116 151.33,-116 155,-119.67 155,-123.33 155,-123.33 155,-130.67 155,-130.67 155,-134.33 151.33,-138 147.67,-138"/>
<text text-anchor="middle" x="110.5" y="-124.2" font-family="Gentium Basic" font-size="11.00">Regex Matching</text>
</g>
<!-- ov&#45;&gt;regex -->
<g id="edge8" class="edge">
<title>ov&#45;&gt;regex</title>
<g id="a_edge8"><a xlink:href="OV-regex" target="_top">
<path fill="none" stroke="grey" stroke-width="3" d="M125.28,-173.99C122.53,-165.42 118.52,-152.94 115.37,-143.15"/>
<polygon fill="grey" stroke="grey" stroke-width="3" points="117.01,-142.53 113.81,-138.3 113.68,-143.6 117.01,-142.53"/>
</a>
</g>
</g>
<!-- lcs -->
<g id="node12" class="node">
<title>lcs</title>
<path fill="none" stroke="black" d="M209.17,-138C209.17,-138 169.83,-138 169.83,-138 166.17,-138 162.5,-134.33 162.5,-130.67 162.5,-130.67 162.5,-123.33 162.5,-123.33 162.5,-119.67 166.17,-116 169.83,-116 169.83,-116 209.17,-116 209.17,-116 212.83,-116 216.5,-119.67 216.5,-123.33 216.5,-123.33 216.5,-130.67 216.5,-130.67 216.5,-134.33 212.83,-138 209.17,-138"/>
<text text-anchor="middle" x="189.5" y="-124.2" font-family="Gentium Basic" font-size="11.00">LCS</text>
</g>
<!-- ov&#45;&gt;lcs -->
<g id="edge9" class="edge">
<title>ov&#45;&gt;lcs</title>
<path fill="none" stroke="grey" stroke-width="3" d="M139.41,-173.99C149.17,-165.02 163.59,-151.79 174.45,-141.82"/>
<polygon fill="grey" stroke="grey" stroke-width="3" points="175.78,-142.97 178.28,-138.3 173.41,-140.4 175.78,-142.97"/>
</g>
<!-- apsp -->
<g id="node3" class="node">
<title>apsp</title>
<path fill="none" stroke="black" d="M597.17,-254C597.17,-254 495.83,-254 495.83,-254 492.17,-254 488.5,-250.33 488.5,-246.67 488.5,-246.67 488.5,-239.33 488.5,-239.33 488.5,-235.67 492.17,-232 495.83,-232 495.83,-232 597.17,-232 597.17,-232 600.83,-232 604.5,-235.67 604.5,-239.33 604.5,-239.33 604.5,-246.67 604.5,-246.67 604.5,-250.33 600.83,-254 597.17,-254"/>
<text text-anchor="middle" x="546.5" y="-240.2" font-family="Gentium Basic" font-size="11.00">All&#45;Pair Shortest Path</text>
</g>
<!-- mat_prod_minplus -->
<g id="node15" class="node">
<title>mat_prod_minplus</title>
<path fill="none" stroke="black" d="M645.17,-196C645.17,-196 539.83,-196 539.83,-196 536.17,-196 532.5,-192.33 532.5,-188.67 532.5,-188.67 532.5,-181.33 532.5,-181.33 532.5,-177.67 536.17,-174 539.83,-174 539.83,-174 645.17,-174 645.17,-174 648.83,-174 652.5,-177.67 652.5,-181.33 652.5,-181.33 652.5,-188.67 652.5,-188.67 652.5,-192.33 648.83,-196 645.17,-196"/>
<text text-anchor="middle" x="592.5" y="-182.2" font-family="Gentium Basic" font-size="11.00">(Min,+) Matrix Product</text>
</g>
<!-- apsp&#45;&gt;mat_prod_minplus -->
<g id="edge10" class="edge">
<title>apsp&#45;&gt;mat_prod_minplus</title>
<g id="a_edge10"><a xlink:href="APSP-minplus" target="_top">
<path fill="none" stroke="grey" stroke-width="3" d="M554.72,-231.99C561.96,-223.18 572.58,-210.25 580.72,-200.34"/>
<polygon fill="grey" stroke="grey" stroke-width="3" points="582.21,-201.28 584.04,-196.3 579.51,-199.06 582.21,-201.28"/>
</a>
</g>
</g>
<!-- sum3 -->
<g id="node4" class="node">
<title>sum3</title>
<path fill="none" stroke="black" d="M844.17,-254C844.17,-254 804.83,-254 804.83,-254 801.17,-254 797.5,-250.33 797.5,-246.67 797.5,-246.67 797.5,-239.33 797.5,-239.33 797.5,-235.67 801.17,-232 804.83,-232 804.83,-232 844.17,-232 844.17,-232 847.83,-232 851.5,-235.67 851.5,-239.33 851.5,-239.33 851.5,-246.67 851.5,-246.67 851.5,-250.33 847.83,-254 844.17,-254"/>
<text text-anchor="middle" x="824.5" y="-240.2" font-family="Gentium Basic" font-size="11.00">3&#45;Sum</text>
</g>
<!-- sum3_conv -->
<g id="node25" class="node">
<title>sum3_conv</title>
<path fill="none" stroke="black" d="M821.67,-196C821.67,-196 733.33,-196 733.33,-196 729.67,-196 726,-192.33 726,-188.67 726,-188.67 726,-181.33 726,-181.33 726,-177.67 729.67,-174 733.33,-174 733.33,-174 821.67,-174 821.67,-174 825.33,-174 829,-177.67 829,-181.33 829,-181.33 829,-188.67 829,-188.67 829,-192.33 825.33,-196 821.67,-196"/>
<text text-anchor="middle" x="777.5" y="-182.2" font-family="Gentium Basic" font-size="11.00">Convolution 3&#45;Sum</text>
</g>
<!-- sum3&#45;&gt;sum3_conv -->
<g id="edge21" class="edge">
<title>sum3&#45;&gt;sum3_conv</title>
<g id="a_edge21"><a xlink:href="3sum-conv3sum" target="_top">
<path fill="none" stroke="grey" stroke-width="3" d="M812.73,-227.98C805.64,-219.53 796.62,-208.78 789.48,-200.28"/>
<polygon fill="grey" stroke="grey" stroke-width="3" points="811.54,-229.28 816.1,-231.99 814.22,-227.03 811.54,-229.28"/>
<polygon fill="grey" stroke="grey" stroke-width="3" points="790.7,-199.01 786.15,-196.3 788.02,-201.26 790.7,-199.01"/>
</a>
</g>
</g>
<!-- collinear -->
<g id="node26" class="node">
<title>collinear</title>
<path fill="none" stroke="black" d="M899.17,-196C899.17,-196 843.83,-196 843.83,-196 840.17,-196 836.5,-192.33 836.5,-188.67 836.5,-188.67 836.5,-181.33 836.5,-181.33 836.5,-177.67 840.17,-174 843.83,-174 843.83,-174 899.17,-174 899.17,-174 902.83,-174 906.5,-177.67 906.5,-181.33 906.5,-181.33 906.5,-188.67 906.5,-188.67 906.5,-192.33 902.83,-196 899.17,-196"/>
<text text-anchor="middle" x="871.5" y="-182.2" font-family="Gentium Basic" font-size="11.00">Collinearity</text>
</g>
<!-- sum3&#45;&gt;collinear -->
<g id="edge22" class="edge">
<title>sum3&#45;&gt;collinear</title>
<g id="a_edge22"><a xlink:href="3sum-collinearity" target="_top">
<path fill="none" stroke="grey" stroke-width="3" d="M832.9,-231.99C840.3,-223.18 851.15,-210.25 859.46,-200.34"/>
<polygon fill="grey" stroke="grey" stroke-width="3" points="860.98,-201.26 862.85,-196.3 858.3,-199.01 860.98,-201.26"/>
</a>
</g>
</g>
<!-- tri -->
<g id="node17" class="node">
<title>tri</title>
<path fill="none" stroke="black" d="M388.67,-138C388.67,-138 348.33,-138 348.33,-138 344.67,-138 341,-134.33 341,-130.67 341,-130.67 341,-123.33 341,-123.33 341,-119.67 344.67,-116 348.33,-116 348.33,-116 388.67,-116 388.67,-116 392.33,-116 396,-119.67 396,-123.33 396,-123.33 396,-130.67 396,-130.67 396,-134.33 392.33,-138 388.67,-138"/>
<text text-anchor="middle" x="368.5" y="-124.2" font-family="Gentium Basic" font-size="11.00">Triangle</text>
</g>
<!-- clique&#45;&gt;tri -->
<g id="edge5" class="edge">
<title>clique&#45;&gt;tri</title>
<path fill="none" stroke="grey" stroke-width="3" d="M353.72,-173.99C356.47,-165.42 360.48,-152.94 363.63,-143.15"/>
<polygon fill="grey" stroke="grey" stroke-width="3" points="365.32,-143.6 365.19,-138.3 361.99,-142.53 365.32,-143.6"/>
</g>
<!-- knapsack -->
<g id="node8" class="node">
<title>knapsack</title>
<path fill="none" stroke="black" d="M711.67,-196C711.67,-196 667.33,-196 667.33,-196 663.67,-196 660,-192.33 660,-188.67 660,-188.67 660,-181.33 660,-181.33 660,-177.67 663.67,-174 667.33,-174 667.33,-174 711.67,-174 711.67,-174 715.33,-174 719,-177.67 719,-181.33 719,-181.33 719,-188.67 719,-188.67 719,-192.33 715.33,-196 711.67,-196"/>
<text text-anchor="middle" x="689.5" y="-182.2" font-family="Gentium Basic" font-size="11.00">Knapsack</text>
</g>
<!-- hs -->
<g id="node9" class="node">
<title>hs</title>
<path fill="none" stroke="black" d="M153.67,-254C153.67,-254 103.33,-254 103.33,-254 99.67,-254 96,-250.33 96,-246.67 96,-246.67 96,-239.33 96,-239.33 96,-235.67 99.67,-232 103.33,-232 103.33,-232 153.67,-232 153.67,-232 157.33,-232 161,-235.67 161,-239.33 161,-239.33 161,-246.67 161,-246.67 161,-250.33 157.33,-254 153.67,-254"/>
<text text-anchor="middle" x="128.5" y="-240.2" font-family="Gentium Basic" font-size="11.00">Hitting Set</text>
</g>
<!-- hs&#45;&gt;ov -->
<g id="edge6" class="edge">
<title>hs&#45;&gt;ov</title>
<path fill="none" stroke="grey" stroke-width="3" d="M128.5,-231.99C128.5,-223.49 128.5,-211.17 128.5,-201.42"/>
<polygon fill="grey" stroke="grey" stroke-width="3" points="130.25,-201.3 128.5,-196.3 126.75,-201.3 130.25,-201.3"/>
</g>
<!-- mat_prod -->
<g id="node13" class="node">
<title>mat_prod</title>
<path fill="none" stroke="black" d="M314.17,-22C314.17,-22 242.83,-22 242.83,-22 239.17,-22 235.5,-18.33 235.5,-14.67 235.5,-14.67 235.5,-7.33 235.5,-7.33 235.5,-3.67 239.17,0 242.83,0 242.83,0 314.17,0 314.17,0 317.83,0 321.5,-3.67 321.5,-7.33 321.5,-7.33 321.5,-14.67 321.5,-14.67 321.5,-18.33 317.83,-22 314.17,-22"/>
<text text-anchor="middle" x="278.5" y="-8.2" font-family="Gentium Basic" font-size="11.00">Matrix Product</text>
</g>
<!-- mat_prod_bool -->
<g id="node14" class="node">
<title>mat_prod_bool</title>
<path fill="none" stroke="black" d="M333.17,-80C333.17,-80 223.83,-80 223.83,-80 220.17,-80 216.5,-76.33 216.5,-72.67 216.5,-72.67 216.5,-65.33 216.5,-65.33 216.5,-61.67 220.17,-58 223.83,-58 223.83,-58 333.17,-58 333.17,-58 336.83,-58 340.5,-61.67 340.5,-65.33 340.5,-65.33 340.5,-72.67 340.5,-72.67 340.5,-76.33 336.83,-80 333.17,-80"/>
<text text-anchor="middle" x="278.5" y="-66.2" font-family="Gentium Basic" font-size="11.00">Boolean Matrix Product</text>
</g>
<!-- mat_prod_bool&#45;&gt;mat_prod -->
<g id="edge20" class="edge">
<title>mat_prod_bool&#45;&gt;mat_prod</title>
<g id="a_edge20"><a xlink:href="BMM-MM" target="_top">
<path fill="none" stroke="grey" stroke-width="3" d="M278.5,-57.99C278.5,-49.49 278.5,-37.17 278.5,-27.42"/>
<polygon fill="grey" stroke="grey" stroke-width="3" points="280.25,-27.3 278.5,-22.3 276.75,-27.3 280.25,-27.3"/>
</a>
</g>
</g>
<!-- tri_neg -->
<g id="node19" class="node">
<title>tri_neg</title>
<path fill="none" stroke="black" d="M635.17,-138C635.17,-138 551.83,-138 551.83,-138 548.17,-138 544.5,-134.33 544.5,-130.67 544.5,-130.67 544.5,-123.33 544.5,-123.33 544.5,-119.67 548.17,-116 551.83,-116 551.83,-116 635.17,-116 635.17,-116 638.83,-116 642.5,-119.67 642.5,-123.33 642.5,-123.33 642.5,-130.67 642.5,-130.67 642.5,-134.33 638.83,-138 635.17,-138"/>
<text text-anchor="middle" x="593.5" y="-124.2" font-family="Gentium Basic" font-size="11.00">Negative Triangle</text>
</g>
<!-- mat_prod_minplus&#45;&gt;tri_neg -->
<g id="edge11" class="edge">
<title>mat_prod_minplus&#45;&gt;tri_neg</title>
<g id="a_edge11"><a xlink:href="minplus-negtriangle" target="_top">
<path fill="none" stroke="grey" stroke-width="3" d="M592.68,-173.99C592.83,-165.49 593.05,-153.17 593.22,-143.42"/>
<polygon fill="grey" stroke="grey" stroke-width="3" points="594.98,-143.33 593.32,-138.3 591.48,-143.27 594.98,-143.33"/>
</a>
</g>
</g>
<!-- minplus_conv -->
<g id="node16" class="node">
<title>minplus_conv</title>
<path fill="none" stroke="black" d="M735.17,-254C735.17,-254 643.83,-254 643.83,-254 640.17,-254 636.5,-250.33 636.5,-246.67 636.5,-246.67 636.5,-239.33 636.5,-239.33 636.5,-235.67 640.17,-232 643.83,-232 643.83,-232 735.17,-232 735.17,-232 738.83,-232 742.5,-235.67 742.5,-239.33 742.5,-239.33 742.5,-246.67 742.5,-246.67 742.5,-250.33 738.83,-254 735.17,-254"/>
<text text-anchor="middle" x="689.5" y="-240.2" font-family="Gentium Basic" font-size="11.00">(Min,+) Convolution</text>
</g>
<!-- minplus_conv&#45;&gt;knapsack -->
<g id="edge26" class="edge">
<title>minplus_conv&#45;&gt;knapsack</title>
<g id="a_edge26"><a xlink:href="minplusconv-knapsack" target="_top">
<path fill="none" stroke="grey" stroke-width="3" d="M689.5,-226.92C689.5,-219.04 689.5,-209.42 689.5,-201.48"/>
<polygon fill="grey" stroke="grey" stroke-width="3" points="687.75,-226.99 689.5,-231.99 691.25,-226.99 687.75,-226.99"/>
<polygon fill="grey" stroke="grey" stroke-width="3" points="691.25,-201.3 689.5,-196.3 687.75,-201.3 691.25,-201.3"/>
</a>
</g>
</g>
<!-- minplus_conv&#45;&gt;mat_prod_minplus -->
<g id="edge25" class="edge">
<title>minplus_conv&#45;&gt;mat_prod_minplus</title>
<g id="a_edge25"><a xlink:href="minplusconv-minplus" target="_top">
<path fill="none" stroke="grey" stroke-width="3" d="M672.16,-231.99C656.12,-222.73 632.2,-208.92 614.75,-198.85"/>
<polygon fill="grey" stroke="grey" stroke-width="3" points="615.22,-197.1 610.02,-196.11 613.47,-200.13 615.22,-197.1"/>
</a>
</g>
</g>
<!-- minplus_conv&#45;&gt;sum3_conv -->
<g id="edge24" class="edge">
<title>minplus_conv&#45;&gt;sum3_conv</title>
<g id="a_edge24"><a xlink:href="minplusconv-conv3sum" target="_top">
<path fill="none" stroke="grey" stroke-width="3" d="M705.23,-231.99C719.78,-222.73 741.49,-208.92 757.31,-198.85"/>
<polygon fill="grey" stroke="grey" stroke-width="3" points="758.33,-200.27 761.61,-196.11 756.45,-197.32 758.33,-200.27"/>
</a>
</g>
</g>
<!-- tri&#45;&gt;mat_prod_bool -->
<g id="edge18" class="edge">
<title>tri&#45;&gt;mat_prod_bool</title>
<g id="a_edge18"><a xlink:href="triangle-BMM" target="_top">
<path fill="none" stroke="grey" stroke-width="3" d="M352.41,-115.99C337.53,-106.73 315.33,-92.92 299.15,-82.85"/>
<polygon fill="grey" stroke="grey" stroke-width="3" points="299.92,-81.27 294.75,-80.11 298.08,-84.24 299.92,-81.27"/>
</a>
</g>
</g>
<!-- tri_neg_v -->
<g id="node18" class="node">
<title>tri_neg_v</title>
<path fill="none" stroke="black" d="M471.67,-80C471.67,-80 355.33,-80 355.33,-80 351.67,-80 348,-76.33 348,-72.67 348,-72.67 348,-65.33 348,-65.33 348,-61.67 351.67,-58 355.33,-58 355.33,-58 471.67,-58 471.67,-58 475.33,-58 479,-61.67 479,-65.33 479,-65.33 479,-72.67 479,-72.67 479,-76.33 475.33,-80 471.67,-80"/>
<text text-anchor="middle" x="413.5" y="-66.2" font-family="Gentium Basic" font-size="11.00">Vertex Negative Triangle</text>
</g>
<!-- tri&#45;&gt;tri_neg_v -->
<g id="edge17" class="edge">
<title>tri&#45;&gt;tri_neg_v</title>
<g id="a_edge17"><a xlink:href="triangle-vnegtriangle" target="_top">
<path fill="none" stroke="grey" stroke-width="3" d="M379.76,-111.98C386.56,-103.53 395.19,-92.78 402.03,-84.28"/>
<polygon fill="grey" stroke="grey" stroke-width="3" points="378.31,-110.99 376.55,-115.99 381.04,-113.19 378.31,-110.99"/>
<polygon fill="grey" stroke="grey" stroke-width="3" points="403.45,-85.3 405.22,-80.3 400.72,-83.11 403.45,-85.3"/>
</a>
</g>
</g>
<!-- tri_zero -->
<g id="node20" class="node">
<title>tri_zero</title>
<path fill="none" stroke="black" d="M755.17,-80C755.17,-80 691.83,-80 691.83,-80 688.17,-80 684.5,-76.33 684.5,-72.67 684.5,-72.67 684.5,-65.33 684.5,-65.33 684.5,-61.67 688.17,-58 691.83,-58 691.83,-58 755.17,-58 755.17,-58 758.83,-58 762.5,-61.67 762.5,-65.33 762.5,-65.33 762.5,-72.67 762.5,-72.67 762.5,-76.33 758.83,-80 755.17,-80"/>
<text text-anchor="middle" x="723.5" y="-66.2" font-family="Gentium Basic" font-size="11.00">Zero Triangle</text>
</g>
<!-- tri_neg&#45;&gt;tri_zero -->
<g id="edge14" class="edge">
<title>tri_neg&#45;&gt;tri_zero</title>
<g id="a_edge14"><a xlink:href="negtriangle-zerotriangle" target="_top">
<path fill="none" stroke="grey" stroke-width="3" d="M616.74,-115.99C638.7,-106.53 671.67,-92.33 695.16,-82.21"/>
<polygon fill="grey" stroke="grey" stroke-width="3" points="696.12,-83.7 700.02,-80.11 694.74,-80.48 696.12,-83.7"/>
</a>
</g>
</g>
<!-- min_k_cycle -->
<g id="node21" class="node">
<title>min_k_cycle</title>
<path fill="none" stroke="black" d="M549.17,-80C549.17,-80 493.83,-80 493.83,-80 490.17,-80 486.5,-76.33 486.5,-72.67 486.5,-72.67 486.5,-65.33 486.5,-65.33 486.5,-61.67 490.17,-58 493.83,-58 493.83,-58 549.17,-58 549.17,-58 552.83,-58 556.5,-61.67 556.5,-65.33 556.5,-65.33 556.5,-72.67 556.5,-72.67 556.5,-76.33 552.83,-80 549.17,-80"/>
<text text-anchor="middle" x="521.5" y="-66.2" font-family="Gentium Basic" font-size="11.00">Min k&#45;Cycle</text>
</g>
<!-- tri_neg&#45;&gt;min_k_cycle -->
<g id="edge12" class="edge">
<title>tri_neg&#45;&gt;min_k_cycle</title>
<g id="a_edge12"><a xlink:href="negtriangle-mincycle" target="_top">
<path fill="none" stroke="grey" stroke-width="3" d="M580.63,-115.99C569,-106.94 551.79,-93.56 538.93,-83.55"/>
<polygon fill="grey" stroke="grey" stroke-width="3" points="539.77,-81.99 534.75,-80.3 537.62,-84.75 539.77,-81.99"/>
</a>
</g>
</g>
<!-- metric -->
<g id="node22" class="node">
<title>metric</title>
<path fill="none" stroke="black" d="M615.67,-80C615.67,-80 571.33,-80 571.33,-80 567.67,-80 564,-76.33 564,-72.67 564,-72.67 564,-65.33 564,-65.33 564,-61.67 567.67,-58 571.33,-58 571.33,-58 615.67,-58 615.67,-58 619.33,-58 623,-61.67 623,-65.33 623,-65.33 623,-72.67 623,-72.67 623,-76.33 619.33,-80 615.67,-80"/>
<text text-anchor="middle" x="593.5" y="-66.2" font-family="Gentium Basic" font-size="11.00">Metricity</text>
</g>
<!-- tri_neg&#45;&gt;metric -->
<g id="edge13" class="edge">
<title>tri_neg&#45;&gt;metric</title>
<g id="a_edge13"><a xlink:href="negtriangle-metric" target="_top">
<path fill="none" stroke="grey" stroke-width="3" d="M593.5,-110.92C593.5,-103.04 593.5,-93.42 593.5,-85.48"/>
<polygon fill="grey" stroke="grey" stroke-width="3" points="591.75,-110.99 593.5,-115.99 595.25,-110.99 591.75,-110.99"/>
<polygon fill="grey" stroke="grey" stroke-width="3" points="595.25,-85.3 593.5,-80.3 591.75,-85.3 595.25,-85.3"/>
</a>
</g>
</g>
<!-- min_k_cycle&#45;&gt;apsp -->
<g id="edge15" class="edge">
<title>min_k_cycle&#45;&gt;apsp</title>
<g id="a_edge15"><a xlink:href="mincycle-APSP" target="_top">
<path fill="none" stroke="grey" stroke-width="3" d="M521.15,-80.26C520.64,-101.91 520.55,-153.76 529.5,-196 531.76,-206.68 536.02,-218.21 539.72,-227.05"/>
<polygon fill="grey" stroke="grey" stroke-width="3" points="538.11,-227.75 541.69,-231.66 541.33,-226.38 538.11,-227.75"/>
</a>
</g>
</g>
<!-- submat_sum -->
<g id="node23" class="node">
<title>submat_sum</title>
<path fill="none" stroke="black" d="M556.17,-22C556.17,-22 486.83,-22 486.83,-22 483.17,-22 479.5,-18.33 479.5,-14.67 479.5,-14.67 479.5,-7.33 479.5,-7.33 479.5,-3.67 483.17,0 486.83,0 486.83,0 556.17,0 556.17,0 559.83,0 563.5,-3.67 563.5,-7.33 563.5,-7.33 563.5,-14.67 563.5,-14.67 563.5,-18.33 559.83,-22 556.17,-22"/>
<text text-anchor="middle" x="521.5" y="-8.2" font-family="Gentium Basic" font-size="11.00">Min Submatrix</text>
</g>
<!-- min_k_cycle&#45;&gt;submat_sum -->
<g id="edge16" class="edge">
<title>min_k_cycle&#45;&gt;submat_sum</title>
<g id="a_edge16"><a xlink:href="mincycle-minsubmatrix" target="_top">
<path fill="none" stroke="grey" stroke-width="3" d="M521.5,-52.92C521.5,-45.04 521.5,-35.42 521.5,-27.48"/>
<polygon fill="grey" stroke="grey" stroke-width="3" points="519.75,-52.99 521.5,-57.99 523.25,-52.99 519.75,-52.99"/>
<polygon fill="grey" stroke="grey" stroke-width="3" points="523.25,-27.3 521.5,-22.3 519.75,-27.3 523.25,-27.3"/>
</a>
</g>
</g>
<!-- reach -->
<g id="node24" class="node">
<title>reach</title>
<path fill="none" stroke="black" d="M326.17,-138C326.17,-138 230.83,-138 230.83,-138 227.17,-138 223.5,-134.33 223.5,-130.67 223.5,-130.67 223.5,-123.33 223.5,-123.33 223.5,-119.67 227.17,-116 230.83,-116 230.83,-116 326.17,-116 326.17,-116 329.83,-116 333.5,-119.67 333.5,-123.33 333.5,-123.33 333.5,-130.67 333.5,-130.67 333.5,-134.33 329.83,-138 326.17,-138"/>
<text text-anchor="middle" x="278.5" y="-124.2" font-family="Gentium Basic" font-size="11.00">All&#45;Pair Reachability</text>
</g>
<!-- reach&#45;&gt;mat_prod_bool -->
<g id="edge19" class="edge">
<title>reach&#45;&gt;mat_prod_bool</title>
<g id="a_edge19"><a xlink:href="reachability-BMM" target="_top">
<path fill="none" stroke="grey" stroke-width="3" d="M278.5,-110.92C278.5,-103.04 278.5,-93.42 278.5,-85.48"/>
<polygon fill="grey" stroke="grey" stroke-width="3" points="276.75,-110.99 278.5,-115.99 280.25,-110.99 276.75,-110.99"/>
<polygon fill="grey" stroke="grey" stroke-width="3" points="280.25,-85.3 278.5,-80.3 276.75,-85.3 280.25,-85.3"/>
</a>
</g>
</g>
<!-- sum3_conv&#45;&gt;tri_zero -->
<g id="edge23" class="edge">
<title>sum3_conv&#45;&gt;tri_zero</title>
<g id="a_edge23"><a xlink:href="conv3sum-zerotriangle" target="_top">
<path fill="none" stroke="grey" stroke-width="3" d="M772.71,-173.88C763.17,-153.74 741.75,-108.52 730.58,-84.94"/>
<polygon fill="grey" stroke="grey" stroke-width="3" points="732.08,-84.03 728.36,-80.26 728.92,-85.53 732.08,-84.03"/>
</a>
</g>
</g>
</g>
</svg>
